<svg xmlns="http://www.w3.org/2000/svg" viewBox="0 0 193.39 144.21"><defs><style>.cls-1{fill:none;}.cls-1,.cls-2,.cls-4{stroke:#fff;}.cls-1,.cls-2,.cls-4,.cls-5{stroke-miterlimit:10;stroke-width:0.75px;}.cls-3,.cls-4{fill:#0071bc;}.cls-5{stroke:#000;}</style></defs><title>Asset 41</title><g id="Layer_2" data-name="Layer 2"><g id="Layer_1-2" data-name="Layer 1"><polygon class="cls-1" points="97.48 78.47 97.48 78.47 97.48 65.78 97.48 78.47"/><polygon class="cls-2" points="97.46 119.49 97.46 123.65 78.08 121.2 78.08 143.68 97.48 143.68 97.48 80.65 97.46 114.07 97.46 119.49"/><path class="cls-2" d="M97.48,78.47h0l28.92-8.79h0a18.82,18.82,0,0,0,3.93-2.54,32.42,32.42,0,0,0,3.85-4L188.94,1.33h0l-10.66,12H156.34L115.08,60.09a11,11,0,0,1-4.2,3.25,16.36,16.36,0,0,1-6.1,1h-7.3V.38H78.08V64.27H19.78V.38H.38v111L19.77,105v8.85L.38,111.38v32.29h19.4V78.47h58.3v6.07l19.4-6.07"/><path class="cls-2" d="M112.37,79.9a7.48,7.48,0,0,1,.91.34,8.48,8.48,0,0,1,1.06.58,9.22,9.22,0,0,0-1.15-.63A5,5,0,0,0,112.37,79.9Z"/><path class="cls-2" d="M162.78,6.09l-6.43,7.27L163,5.92A.91.91,0,0,0,162.78,6.09Z"/><path class="cls-2" d="M192.58,143.79l-57-66.9a24.61,24.61,0,0,0-4.3-4.55,15.48,15.48,0,0,0-2.34-1.54,15.12,15.12,0,0,1,2.25,1.49,24.6,24.6,0,0,1,4.3,4.55l49.33,57.86-25.06-3.17-27.83-31.47,38.47,43.61Z"/><polygon class="cls-3" points="19.77 104.98 0.38 111.38 0.37 111.38 0.38 111.38 19.77 113.83 19.77 104.98"/><path class="cls-4" d="M184.84,134.7,135.51,76.84a24.93,24.93,0,0,0-4.3-4.55A15.12,15.12,0,0,0,129,70.8a15.29,15.29,0,0,0-2.55-1.12s0,0,0,0L97.49,78.47h0l-19.4,6.07h0V121.2h0l19.39,2.45V78.47l8.72.72a38.72,38.72,0,0,1,6.17.71,5.06,5.06,0,0,1,.83.29,10,10,0,0,1,1.15.63,13.31,13.31,0,0,1,3.15,2.92l14.43,16.32,27.83,31.47Z"/><polygon class="cls-4" points="188.93 1.33 188.93 1.33 164.51 4.17 162.95 5.92 156.35 13.37 156.34 13.37 156.34 13.37 178.28 13.37 188.93 1.33"/><line class="cls-1" x1="136.41" y1="105.11" x2="126.4" y2="69.68"/><line class="cls-1" x1="115.31" y1="81.5" x2="126.4" y2="69.68"/><line class="cls-1" x1="136.41" y1="105.11" x2="171.17" y2="118.41"/><line class="cls-1" x1="136.41" y1="105.11" x2="143.53" y2="86.24"/><line class="cls-1" x1="78.08" y1="121.2" x2="97.46" y2="105.11"/><line class="cls-1" x1="97.46" y1="105.11" x2="78.08" y2="84.54"/><polygon class="cls-1" points="97.48 78.52 97.48 78.52 97.48 65.83 97.48 78.52"/><polygon class="cls-2" points="97.46 119.53 97.46 123.7 78.08 121.25 78.08 143.72 97.48 143.72 97.48 80.7 97.46 114.12 97.46 119.53"/><path class="cls-2" d="M97.48,78.52h0l28.92-8.8h0a18.43,18.43,0,0,0,3.93-2.54,31.71,31.71,0,0,0,3.85-4L188.94,1.37h0l-10.66,12H156.34L115.08,60.13a10.84,10.84,0,0,1-4.2,3.25,16.15,16.15,0,0,1-6.1.95h-7.3V.42H78.08v63.9H19.78V.42H.38v111L19.77,105v8.85L.38,111.43v32.29h19.4V78.52h58.3v6.06l19.4-6.06"/><path class="cls-2" d="M112.37,79.94c.32.11.63.22.91.34a10,10,0,0,1,1.06.58,9.22,9.22,0,0,0-1.15-.63A7.83,7.83,0,0,0,112.37,79.94Z"/><path class="cls-2" d="M162.78,6.13l-6.43,7.28L163,6A1.29,1.29,0,0,0,162.78,6.13Z"/><path class="cls-2" d="M192.58,143.83l-57-66.9a25.26,25.26,0,0,0-4.3-4.55,16.28,16.28,0,0,0-2.34-1.54,15.94,15.94,0,0,1,2.25,1.49,24.92,24.92,0,0,1,4.3,4.55l49.33,57.86-25.06-3.17L131.93,100.1l38.47,43.62Z"/><path class="cls-4" d="M184.84,134.74,135.51,76.88a25.26,25.26,0,0,0-4.3-4.55A15.94,15.94,0,0,0,129,70.84a17.13,17.13,0,0,0-2.55-1.12s0,0,0,0l-28.91,8.8h0l-19.4,6.06h0v36.66h0l19.39,2.45V78.52l8.72.71a41.23,41.23,0,0,1,6.17.71,8,8,0,0,1,.83.29,10,10,0,0,1,1.15.63,13.52,13.52,0,0,1,3.15,2.92l14.43,16.32,27.83,31.47Z"/><polygon class="cls-4" points="188.93 1.38 188.93 1.37 164.51 4.21 162.95 5.97 156.35 13.41 156.34 13.42 156.34 13.42 178.28 13.42 188.93 1.38"/><line class="cls-1" x1="136.41" y1="105.15" x2="159.62" y2="105.15"/><line class="cls-1" x1="136.41" y1="105.15" x2="126.4" y2="69.72"/><line class="cls-1" x1="115.31" y1="81.55" x2="126.4" y2="69.72"/><line class="cls-1" x1="136.41" y1="105.15" x2="171.17" y2="118.46"/><line class="cls-1" x1="136.41" y1="105.15" x2="143.53" y2="86.29"/><line class="cls-1" x1="78.08" y1="121.25" x2="97.46" y2="105.15"/><line class="cls-1" x1="97.46" y1="105.15" x2="78.08" y2="84.58"/><line class="cls-1" x1="97.46" y1="105.04" x2="78.08" y2="105.04"/><line class="cls-5" x1="99.67" y1="77.05" x2="93" y2="79.11"/><line class="cls-1" x1="0.38" y1="111.38" x2="19.77" y2="113.83"/><line class="cls-1" x1="0.38" y1="111.38" x2="19.77" y2="104.98"/></g></g></svg>