<svg xmlns="http://www.w3.org/2000/svg" viewBox="0 0 220.62 131.6"><g id="Layer_2" data-name="Layer 2"><g id="Layer_1-2" data-name="Layer 1"><path d="M102.07,74.82a1.51,1.51,0,0,0-1.51-1.5H41.35C12.86,72.65,4.89,66.82.05,46.79a1.51,1.51,0,0,1,2.68-1.27c3.54,4.67,7.29,7.12,12.34,8.27a1.51,1.51,0,0,0,1.84-1.48V7.52C16.91,4.51,15,3,11.46,3h-.57a1.51,1.51,0,0,1,0-3H37.35a4,4,0,0,1,4,4V54a1.51,1.51,0,0,0,1.5,1.51h57.71A1.52,1.52,0,0,0,102.07,54V7.52c0-3-1.88-4.51-5.45-4.51h-.57a1.51,1.51,0,0,1,0-3h26.46a4,4,0,0,1,4,4V122.19c0,3,1.88,4.51,5.45,4.51h.56a1.51,1.51,0,1,1,0,3L110,116.26c-.83,0,12.12-13.4,0,0ZM37.35,129.71H20.91a4,4,0,0,1-4-4v-49a1.5,1.5,0,0,1,2.26-1.3C24.8,78.82,32.46,81,40,81.83a1.51,1.51,0,0,1,1.36,1.49v42.39A4,4,0,0,1,37.35,129.71Z"/><path d="M102.08,7.52c0-3-1.88-4.51-5.45-4.51h-.56a1.51,1.51,0,0,1-1.51-1.5h0A1.51,1.51,0,0,1,96.07,0h26.45a4,4,0,0,1,4,4V55.46A1.51,1.51,0,0,0,128,57h9.73A1.5,1.5,0,0,0,139,56.3L175.9,1.76A4,4,0,0,1,179.21,0h18A4,4,0,0,1,200.5,6.3L157,68.32a1.52,1.52,0,0,0,0,1.73l24.59,35.23q13,18.61,31.58,18.61a34.67,34.67,0,0,0,5.67-.38,1.5,1.5,0,0,1,1.22,2.64c-4.43,3.66-10.24,5.45-17.41,5.45-21.06,0-34.78-7-45.12-21.81l-21.36-31.3a1.51,1.51,0,0,0-1.24-.66H128a1.51,1.51,0,0,0-1.5,1.51V122.2c0,3,1.88,4.51,5.45,4.51h.57a1.5,1.5,0,0,1,1.5,1.5h0a1.51,1.51,0,0,1-1.5,1.51H106.08a4,4,0,0,1-4-4Z"/><path d="M20.91,130.12H37.35a4,4,0,0,0,4-4V78.24C30.58,78,22.75,77,16.91,74.77v51.35A4,4,0,0,0,20.91,130.12Z"/><path d="M20.21,83.56a1.51,1.51,0,0,0,1.5,1.51"/></g></g></svg>