<svg xmlns="http://www.w3.org/2000/svg" viewBox="0 0 1311.81 1184.48"><defs><style>.cls-1{fill-rule:evenodd;}.cls-2,.cls-3,.cls-4,.cls-5,.cls-6{fill:none;}.cls-3,.cls-4,.cls-5,.cls-6{stroke:#000;stroke-linecap:round;stroke-linejoin:round;}.cls-3{stroke-width:20px;}.cls-4{stroke-width:20.68px;}.cls-5{stroke-width:4px;}.cls-6{stroke-width:3px;}.cls-7{fill:#ffd364;}.cls-8{fill:#ffe67d;}</style></defs><g id="Layer_2" data-name="Layer 2"><g id="Layer_1-2" data-name="Layer 1"><g id="Page-1"><g id="Dribbble-Light-Preview"><g id="icons"><path id="python-_127_" data-name="python-[#127]" class="cls-1" d="M855,241.52a4.44,4.44,0,1,1,4.42-4.44,4.42,4.42,0,0,1-4.42,4.44m-13.54,7.82c25.73,0,24.12-11.22,24.12-11.22l0-11.62H841V223h34.3s16.47,1.88,16.47-24.21-14.37-25.18-14.37-25.18h-8.58v12.11s.46,14.44-14.14,14.44H830.28s-13.68-.21-13.68,13.3v22.34s-2.08,13.53,24.81,13.53M827.14,155.8a4.44,4.44,0,1,1-4.42,4.44,4.43,4.43,0,0,1,4.42-4.44M840.68,148c-25.73,0-24.12,11.21-24.12,11.21l0,11.62h24.55v3.49H806.83s-16.46-1.88-16.46,24.22,14.37,25.17,14.37,25.17h8.57V211.59s-.46-14.44,14.15-14.44H851.8s13.69.22,13.69-13.3V161.51S867.56,148,840.68,148"/></g></g></g><g id="Page-1-2" data-name="Page-1"><g id="Dribbble-Light-Preview-2" data-name="Dribbble-Light-Preview"><g id="icons-2" data-name="icons"><path id="javascript-_155_" data-name="javascript-[#155]" class="cls-1" d="M617.06,596c-8.39,0-13.82-4-16.46-9.23h0l7.36-4.26c1.93,3.17,4.45,5.49,8.9,5.49,3.74,0,6.13-1.87,6.13-4.45,0-3.89-5.18-5.41-8.84-7-6.52-2.78-10.84-6.26-10.84-13.62,0-6.78,5.16-11.94,13.23-11.94,5.74,0,9.88,2,12.84,7.23l-7,4.52c-1.55-2.78-3.23-3.88-5.81-3.88s-4.32,1.68-4.32,3.88c0,2.71,1.67,3.8,5.55,5.48,8.12,3.48,14.26,6.22,14.26,15.17,0,8.13-6.39,12.58-15,12.58Zm-20.81-13.62c0,9.36-5.76,14.31-13.77,14.31-7.23,0-11.56-2.76-13.69-7.57h-.13L576,584c1.41,2.52,2.69,4.3,5.79,4.3s4.83-1.51,4.83-6V550.7h9.61Zm-52.88,21.16h96.15V507.43H543.37Z"/></g></g></g><g id="Layer_2-2" data-name="Layer 2"><g id="invisible_box" data-name="invisible box"><rect class="cls-2" x="779.73" y="498.58" width="113.85" height="113.85"/></g><g id="Q3_icons" data-name="Q3 icons"><path d="M880.06,526.57l-39.37-22.29a9.5,9.5,0,0,0-8.07,0l-39.37,22.29a8.06,8.06,0,0,0-4,6.88v44.12a8,8,0,0,0,4,6.87l10.44,5.93a17.06,17.06,0,0,0,9,2.38c7.35,0,11.62-4.51,11.62-12.1V537.24a1.18,1.18,0,0,0-1.19-1.18h-5a1.18,1.18,0,0,0-1.18,1.18v43.41c0,3.56-3.56,6.88-9.25,4l-10.91-6.17a1.17,1.17,0,0,1-.48-.94V533.45a1.94,1.94,0,0,1,.48-1.19l39.13-22.05h1.42l39.14,22.05a1.87,1.87,0,0,1,.47,1.19v44.12a1.16,1.16,0,0,1-.47.94l-39.14,22.06a1.39,1.39,0,0,1-1.42,0l-10-5.69a.72.72,0,0,0-1,0l-5.93,2.61c-.71.24-1.66.47.24,1.66l13.28,7.35a7.35,7.35,0,0,0,8.07,0l39.37-22.06a8.06,8.06,0,0,0,4-6.87V533.45A8.08,8.08,0,0,0,880.06,526.57Z"/><path d="M848.75,570.45c-10.44,0-12.57-2.37-13.52-7.35a.94.94,0,0,0-1-1h-5.22a1,1,0,0,0-.95,1c0,6.4,3.56,14.23,20.64,14.23,12.33,0,19.45-4.75,19.45-13.05s-5.69-10.67-17.79-12.09-13.28-2.37-13.28-5.22,1-5.22,10-5.22,11.15,1.66,12.33,6.88a1.2,1.2,0,0,0,1.19,1h5l.95-.48a1,1,0,0,0,.24-.71c-.72-9.25-7.12-13.52-19.69-13.52s-17.79,4.75-17.79,12.34,6.64,10.67,17.32,11.86,14,2.84,14,5.45S857.05,570.45,848.75,570.45Z"/></g></g><g id="Icons1"><g id="react"><circle cx="720.6" cy="600.09" r="10.81"/><path class="cls-1" d="M721.39,577.31c18.43.12,38.53,1.47,52.33,13.77.4.36.79.74,1.17,1.13,3.26,3.32,5,8.67,2.33,13.08-5.39,9.05-17.45,13-29.12,15.43a139,139,0,0,1-53.16.47c-10-1.85-20.31-5.08-27.44-11.84-2.78-2.63-5.16-6.09-4.78-9.94.6-6.23,6.58-10.23,11.61-12.94,14-7.52,31-9.2,47.06-9.16Zm-1.34,2.83c-17.43.12-36.3,1.23-49.76,12.37-.47.39-.92.8-1.36,1.23-.28.27-.55.56-.82.86-2.36,2.65-3.17,6.91-.94,10.1s5.65,5.52,9.16,7.41c13.12,7.06,28.63,8.31,43.75,8.36,15.3.06,31.09-1.34,44.61-8.33,5.38-2.79,11.45-6.88,11.23-12.15-.2-4.84-4.91-7.82-8.44-10-1-.57-1.94-1.11-2.94-1.61-13.42-6.72-29.15-8.32-44.49-8.28Z"/><path class="cls-1" d="M745,548.8c6.74.17,10.24,8.27,10.7,14.26.09,1.19.12,2.38.11,3.58s-.09,2.59-.2,3.87c-1.42,16-8.71,31.16-17.29,45.19-8.39,13.72-18.62,27.41-32.54,33.77-4.6,2.11-10.07,3.41-14.15,1.06-5.58-3.22-6.19-10.74-6.09-16.45q0-2.1.27-4.2c2.14-20.66,12.61-40.23,25.72-57.09,7.64-9.83,16.74-19.59,28.07-23.12a15.45,15.45,0,0,1,5.4-.87Zm-.32,2.83c-7.91.12-15,6-21.31,12.08-16.54,16-28.73,37.32-33.63,59.66-.38,1.73-.7,3.47-.93,5.22-.18,1.36-.32,2.73-.39,4.1,0,1.09-.07,2.18,0,3.28,0,.85.08,1.71.18,2.55.07.65.16,1.3.28,1.94.09.48.19.95.31,1.42s.21.76.34,1.14c1,3,3.53,5.82,6.94,5.91,8,.22,15.47-5.59,22-11.9,11.39-11.08,19.87-25,26.5-39.64,5.34-11.81,10.23-24.66,7.5-37.66-.1-.49-.22-1-.36-1.46s-.24-.78-.38-1.17c-1.06-2.89-3.56-5.48-7-5.47Z"/><path class="cls-1" d="M696.73,548.91c8.6.16,16.32,6,23.18,12.54,12.51,11.93,21.74,27.1,28.75,43.07,5.42,12.37,10.41,26.26,6,39.32-1.4,4.11-4.94,7.88-9.65,8-8.64.18-16.65-6.11-23.6-12.87C704,622,691,599.55,686.58,575.79c-.32-1.7-.58-3.41-.75-5.13-.14-1.41-.23-2.82-.26-4.23,0-1.14,0-2.28.09-3.41.05-.76.13-1.51.23-2.27s.23-1.4.38-2.1c.11-.46.22-.91.36-1.37,1.3-4.45,4.68-8.41,10.1-8.37Zm-.33,2.83c-5,.11-7.34,6-7.8,10.21q-.15,1.29-.18,2.58c0,1.1,0,2.2,0,3.31.79,15.92,7.91,31.32,16.5,45.41,8.09,13.28,17.86,26.5,31.3,33.29,3.88,2,8.59,3.51,12,1.65,4.2-2.32,4.72-7.87,4.94-12,.06-1.12.07-2.25,0-3.38,0-1.41-.15-2.83-.32-4.23-1.55-13.12-7.36-25.54-14-37.27-8.31-14.59-18.49-29.14-32.89-36.74-3-1.57-6.21-2.86-9.53-2.83Z"/></g></g><path d="M1311.35,816.06c-.09-.52.07-1-.07-1.56l-28-98a14,14,0,0,0-13.46-10.15h-70v-70a98,98,0,0,0-97.89-98h-84.13a98,98,0,0,0-97.89,98v70H598.05a14,14,0,0,0-13.46,10.15l-28,98a11.56,11.56,0,0,0-.07,1.56,12.52,12.52,0,0,0-.46,2.27v307.9a14,14,0,0,0,14,14h56v44.25h28v-44.25h559.82v44.25h28v-44.25h56a14,14,0,0,0,14-14V818.33A11.72,11.72,0,0,0,1311.35,816.06ZM947.94,636.4a70,70,0,0,1,69.89-70H1102a70,70,0,0,1,69.9,70v70H947.94v-70Zm-339.34,98h650.67l20,70H588.62Zm675.23,377.87H584.06V832.33h699.76v279.91Z"/><path id="path3796" class="cls-3" d="M811.73,480.81l245.87,72.46,226.46-76.34"/><path id="path3800" class="cls-4" d="M1059,718.23V415.49"/><path d="M793.14,867.32v209.93a14,14,0,0,0,14,14h251.92a14,14,0,0,0,14-14V867.32a14,14,0,0,0-14-14H807.14A14,14,0,0,0,793.14,867.32Zm251.92,14v181.93H821.14V881.32Z"/><g id="Layer_5" data-name="Layer 5"><path d="M974.17,1034.83l-12.06-20.73c2.08-.64,4.31-1.2,5.23-2.8,1.54-2.66-1.2-7-.48-9.87S972,996,972,993s-4.53-6.3-5.27-9.21,2-7.22.46-9.87-6.69-2.44-8.8-4.48-2.18-7.23-4.81-8.63-6.93,1.44-9.86.76-5.48-5-8.51-5-8,5-8.72,5.13c-2.93.68-7.23-2.17-9.86-.75s-2.61,6.54-4.79,8.64-7.26,1.84-8.8,4.5,1.2,7,.48,9.87-5.25,5.75-5.25,9.06c0,3,4.39,5.51,5.13,8.44s-2,7.21-.46,9.87c.84,1.45,2.75,2,4.66,2.61.22.07.64.32.35.73L896.14,1035a1.68,1.68,0,0,0,1.5,2.75l8.14.34a6.5,6.5,0,0,1,4.64,2.68l4.34,6.9a1.68,1.68,0,0,0,3.13-.06l12.16-21c.25-.29.49-.23.61-.13,1.33,1.13,3.18,2.26,4.73,2.26s2.92-1.06,4.31-2.24c.12-.1.39-.3.59.11l12.15,20.88a1.68,1.68,0,0,0,3.13,0l4.33-6.9a6.5,6.5,0,0,1,4.63-2.7l8.14-.35A1.68,1.68,0,0,0,974.17,1034.83ZM948.64,1016a27,27,0,1,1-.54-47l.2.11.29.16a27,27,0,0,1,0,46.77Z"/><path d="M946.59,973l-.12-.06a22.74,22.74,0,0,0-23.48,39c.26.17.52.33.79.48A22.75,22.75,0,1,0,946.59,973Zm2.71,17.75-3.8,3.7a6.37,6.37,0,0,0-1.63,5l.89,5.23c.28,1.62-.68,2.32-2.14,1.55l-4.69-2.47a6.45,6.45,0,0,0-5.3,0l-4.69,2.47c-1.46.77-2.42.07-2.14-1.55l.89-5.23a6.37,6.37,0,0,0-1.63-5l-3.8-3.7c-1.18-1.15-.81-2.28.82-2.52l5.25-.76a6.43,6.43,0,0,0,4.28-3.11l2.35-4.76c.72-1.47,1.91-1.47,2.64,0l2.35,4.76a6.41,6.41,0,0,0,4.28,3.11l5.25.76C950.11,988.45,950.48,989.58,949.3,990.73Z"/></g><path d="M843.49,938.24H841v-33.6h22.47v2.21h-20Zm-.29-17h18.19v2.21H843.2Z"/><path d="M871.76,907.09a1.95,1.95,0,1,1,0-3.89,1.92,1.92,0,0,1,1.42.56,1.82,1.82,0,0,1,.55,1.36,2,2,0,0,1-.55,1.4A1.89,1.89,0,0,1,871.76,907.09Zm-1.2,31.15v-25H873v25Z"/><path d="M895.33,913a11.56,11.56,0,0,1,5.35,1.17,8.33,8.33,0,0,1,3.55,3.55,12.35,12.35,0,0,1,1.28,5.88v14.64H903.1V923.8c0-2.82-.71-5-2.13-6.44a8,8,0,0,0-6-2.2,10.33,10.33,0,0,0-5.09,1.2,8,8,0,0,0-3.28,3.36,11,11,0,0,0-1.13,5.18v13.34h-2.4v-25h2.3v7l-.33-.77a9.5,9.5,0,0,1,3.79-4.68A11.67,11.67,0,0,1,895.33,913Z"/><path d="M922.16,938.44a12,12,0,0,1-4.82-.89,6.92,6.92,0,0,1-3.12-2.52,6.65,6.65,0,0,1-1.08-3.75,6.92,6.92,0,0,1,.88-3.48,6.49,6.49,0,0,1,3-2.54,12.87,12.87,0,0,1,5.52-1h9.21v1.87h-9.17q-3.88,0-5.44,1.44a4.7,4.7,0,0,0-1.56,3.6,4.63,4.63,0,0,0,1.82,3.84,8.12,8.12,0,0,0,5.14,1.44,9.52,9.52,0,0,0,5.35-1.44,8.54,8.54,0,0,0,3.24-4.18l.67,1.63a8.69,8.69,0,0,1-3.43,4.35A11,11,0,0,1,922.16,938.44Zm9-.2v-5.71l-.09-.86v-9.41a7,7,0,0,0-1.9-5.33,7.71,7.71,0,0,0-5.54-1.82,13.17,13.17,0,0,0-8.64,3.17l-1.2-1.73a13.46,13.46,0,0,1,4.51-2.62,16.49,16.49,0,0,1,5.52-.93c3.1,0,5.49.78,7.15,2.35s2.5,3.9,2.5,7v15.88Z"/><path d="M955.62,913a11.59,11.59,0,0,1,5.35,1.17,8.33,8.33,0,0,1,3.55,3.55,12.35,12.35,0,0,1,1.27,5.88v14.64h-2.4V923.8c0-2.82-.71-5-2.13-6.44a8,8,0,0,0-6-2.2,10.33,10.33,0,0,0-5.09,1.2,8.07,8.07,0,0,0-3.29,3.36,11.07,11.07,0,0,0-1.12,5.18v13.34h-2.4v-25h2.3v7l-.34-.77a9.58,9.58,0,0,1,3.8-4.68A11.67,11.67,0,0,1,955.62,913Z"/><path d="M985.62,938.44a12.85,12.85,0,0,1-6.51-1.64,11.91,11.91,0,0,1-4.51-4.51,14,14,0,0,1,0-13.2,11.86,11.86,0,0,1,4.51-4.49,13,13,0,0,1,6.51-1.6,12.82,12.82,0,0,1,5.49,1.15,9.7,9.7,0,0,1,4,3.45l-1.78,1.3a8.1,8.1,0,0,0-3.36-2.83,11,11,0,0,0-9.62.41,9.45,9.45,0,0,0-3.65,3.69,12.31,12.31,0,0,0,0,11.09,9.48,9.48,0,0,0,3.65,3.7,11,11,0,0,0,9.62.4,8,8,0,0,0,3.36-2.83l1.78,1.3a9.63,9.63,0,0,1-4,3.45A12.83,12.83,0,0,1,985.62,938.44Z"/><path d="M1012.06,938.44a13.4,13.4,0,0,1-6.69-1.64,11.76,11.76,0,0,1-4.56-4.51,12.88,12.88,0,0,1-1.66-6.57,13.53,13.53,0,0,1,1.56-6.6,11.54,11.54,0,0,1,4.3-4.49,11.72,11.72,0,0,1,6.14-1.63,11.88,11.88,0,0,1,6.12,1.58,11.33,11.33,0,0,1,4.27,4.44,13.53,13.53,0,0,1,1.56,6.6,1.67,1.67,0,0,1,0,.31,2.06,2.06,0,0,0,0,.36h-22.13v-1.87h20.83l-1,.91a10.49,10.49,0,0,0-1.22-5.25,9.53,9.53,0,0,0-3.44-3.65,9.52,9.52,0,0,0-13.39,3.65,11.06,11.06,0,0,0-1.25,5.3v.43a10.73,10.73,0,0,0,1.37,5.45,9.65,9.65,0,0,0,3.77,3.7,11.15,11.15,0,0,0,5.47,1.32,11.55,11.55,0,0,0,4.49-.87,8.73,8.73,0,0,0,3.53-2.64l1.39,1.59a10.28,10.28,0,0,1-4.1,3A13.77,13.77,0,0,1,1012.06,938.44Z"/><rect y="227.11" width="68.81" height="32"/><path d="M394,63c13.21,50.85,32.61,119,49.25,151H512V0H378.44s2.33,10.2,6.26,26.3H127.31C131.24,10.2,133.56,0,133.56,0H0V214H68.81c16.63-32,36-100.1,49.24-151"/><path d="M242,396.08H117.62L64.76,272.36H0V490.24s24.28,19.45,68.81,0,44.52,15.56,89,0l-25.49-59.66H379.64l-25.49,59.66c44.52,15.56,44.52-19.45,89,0s68.81,0,68.81,0V272.36H447.24L394.38,396.08H266"/><rect x="443.2" y="227.11" width="68.8" height="32"/><path id="path3802" class="cls-3" d="M1223,264.32c0,83.45-74.37,151.13-165,151.17-87.93,0-164.07-67.58-164.11-151v-.14c0-83.44,74.36-151.12,165-151.16s164.06,67.57,164.11,151Z"/><path id="path5748" d="M1145.06,227a8.73,8.73,0,1,1-8.73-8.72A8.73,8.73,0,0,1,1145.06,227Z"/><path id="path5748-2" data-name="path5748" d="M991.3,227a8.73,8.73,0,1,1-8.73-8.72A8.73,8.73,0,0,1,991.3,227Z"/><path class="cls-5" d="M1015.65,253.84a85.15,85.15,0,0,0,80.79,0"/><path class="cls-6" d="M1008.45,255.46q7.9-.5,10.48-8"/><path class="cls-6" d="M1094.36,246.45q.5,7.89,8,10.47"/><path d="M857.62,445.57H852.4V292.82A19.38,19.38,0,0,0,833,273.46H606.82a19.38,19.38,0,0,0-19.36,19.36V445.57h-5.23a4.62,4.62,0,0,0-4.61,4.61V460a14.46,14.46,0,0,0,14.45,14.44H847.79A14.46,14.46,0,0,0,862.23,460v-9.84A4.61,4.61,0,0,0,857.62,445.57ZM596.68,292.82a10.15,10.15,0,0,1,10.14-10.14H833a10.16,10.16,0,0,1,10.15,10.14V445.57H596.68ZM853,460a5.22,5.22,0,0,1-5.22,5.22H592.07a5.23,5.23,0,0,1-5.23-5.22v-5.23h103.9c0,.11,0,.21,0,.31a4.6,4.6,0,0,0,4.61,4.61h49.18a4.61,4.61,0,0,0,4.61-4.61c0-.1,0-.2,0-.31H853Z"/><path d="M828.12,293.13H611.74a4.6,4.6,0,0,0-4.61,4.61V430.51a4.6,4.6,0,0,0,4.61,4.61H828.12a4.61,4.61,0,0,0,4.61-4.61V297.74A4.61,4.61,0,0,0,828.12,293.13ZM823.51,425.9H616.35V302.35H823.51Z"/><path d="M752.32,350.6c-.49.39-9.2,5.29-9.2,16.2,0,12.61,11.08,17.08,11.41,17.19a44.58,44.58,0,0,1-5.84,12.06c-3.64,5.24-7.44,10.47-13.22,10.47s-7.27-3.36-13.94-3.36c-6.5,0-8.82,3.47-14.1,3.47s-9-4.85-13.22-10.8a52,52,0,0,1-8.89-28.15c0-16.52,10.75-25.29,21.32-25.29,5.62,0,10.31,3.69,13.84,3.69,3.35,0,8.59-3.91,15-3.91a20,20,0,0,1,16.86,8.43Zm-19.89-15.43a19,19,0,0,0,4.51-11.84,8.28,8.28,0,0,0-.16-1.71c-4.3.17-9.42,2.87-12.5,6.45a18.42,18.42,0,0,0-4.69,11.52,8,8,0,0,0,.16,1.54,6.92,6.92,0,0,0,1.16.11c3.86,0,8.71-2.59,11.52-6.07Z"/><path d="M613,154.1a43.34,43.34,0,0,0-11.7,1.71l-.27.09a47.58,47.58,0,0,0-7.24-.7,24.12,24.12,0,0,0-12.77,3.15,49.06,49.06,0,0,0-17.95-2.82c-5.19.28-10.86,1.85-15.07,6.3s-6.4,11.29-5.93,20.64a83.76,83.76,0,0,0,2.08,12.21,142,142,0,0,0,5.06,17.62c2.14,5.8,4.47,11,8.12,14.57a10,10,0,0,0,7.31,3.15,9.27,9.27,0,0,0,5.57-2.34,6.74,6.74,0,0,0,2.41,1.91,11.86,11.86,0,0,0,2.88,1.13,20,20,0,0,0,8.27.43,16.45,16.45,0,0,0,3.72-1.14c.05,1.39.1,2.76.15,4.16.18,4.39.3,8.45,1.61,12a15.61,15.61,0,0,0,3.08,6.22c2.3,2.65,6.78,4.29,11.9,3.2,3.6-.77,8.19-2.16,11.24-6.5s4.38-10.42,4.64-20.41c.07-.54.15-1,.23-1.42l.72.07h.08a25.45,25.45,0,0,0,11.52-2c3.08-1.43,5.42-2.87,7.13-5.44a5.42,5.42,0,0,0,1-2.74,5.55,5.55,0,0,0-1.89-4.34c-2.52-1.92-4.11-1.19-5.82-.82a28.09,28.09,0,0,1-5.09.61,97.59,97.59,0,0,0,10.43-24.8,53.84,53.84,0,0,0,1.91-12.52c.06-3.69-.25-7-2.46-9.79-6.93-8.83-16.66-11.29-24.18-11.37H613Zm-.2,2.72c7.11-.06,16.21,1.93,22.74,10.28,1.47,1.87,1.91,4.61,1.86,8a52.06,52.06,0,0,1-1.83,11.84,94.88,94.88,0,0,1-12.28,27.53,2.86,2.86,0,0,0,.66.37c1.23.51,4,.94,9.63-.2,1.41-.3,2.44-.5,3.52.31a2.19,2.19,0,0,1,.77,1.81,2.91,2.91,0,0,1-.56,1.43,14.58,14.58,0,0,1-6,4.44,23.68,23.68,0,0,1-9,1.74,13.67,13.67,0,0,1-4.2-.48l-.07,0c-.46,4.49-1.54,13.38-2.24,17.42-.56,3.26-1.54,5.87-3.41,7.81S608,252.2,604.44,253c-4.41.94-7.61-.07-9.68-1.81a13.16,13.16,0,0,1-3.58-5.47,15.32,15.32,0,0,1-.79-3.93c-.2-1.69-.33-3.75-.44-6.08-.13-3.57-.18-7.13-.13-10.71a13,13,0,0,1-6.58,3.23,17.49,17.49,0,0,1-7.09-.38,9.93,9.93,0,0,1-2.21-.86,4.06,4.06,0,0,1-1.87-1.68,2.46,2.46,0,0,1-.23-1.62,2.59,2.59,0,0,1,.91-1.41,8.35,8.35,0,0,1,3.63-1.41c3-.63,4.13-1.06,4.78-1.58a24.15,24.15,0,0,0,2.27-2.63.5.5,0,0,0,0-.17,12.68,12.68,0,0,1-5.64-1.52c-.62.66-3.89,4.11-7.85,8.88-1.66,2-3.5,3.13-5.45,3.22a7.13,7.13,0,0,1-5.19-2.34c-3-2.9-5.38-7.89-7.45-13.53a144.39,144.39,0,0,1-5-17.25,85.33,85.33,0,0,1-2-11.74c-.45-8.83,1.62-14.78,5.17-18.55s8.41-5.17,13.15-5.45c8.5-.48,16.59,2.49,18.21,3.12a20.81,20.81,0,0,1,12.29-3.39,31.83,31.83,0,0,1,7.13.93l.08-.05a28.57,28.57,0,0,1,3.13-.89,41.44,41.44,0,0,1,8.79-1.08Zm.64,2.84h-.62a36.66,36.66,0,0,0-7.23.82,31.8,31.8,0,0,1,12.1,9.55,35.61,35.61,0,0,1,4.79,8.14,17.63,17.63,0,0,1,1,2.8,5.8,5.8,0,0,1,.18,1,1.66,1.66,0,0,1-.07.62s0,0,0,.07c.14,3.71-.79,6.22-.92,9.77-.07,2.57.59,5.59.75,8.89a17,17,0,0,1-2.23,9.84l.48.62a92.7,92.7,0,0,0,11.2-25.57A49.64,49.64,0,0,0,634.57,175c0-3.06-.51-5.28-1.24-6.2-5.7-7.28-13.41-9.14-19.86-9.19Zm-20.34,1.09a17,17,0,0,0-11.33,3.8,20.82,20.82,0,0,0-5.94,8.85,37.56,37.56,0,0,0-2.19,10.24l.07,0a21.34,21.34,0,0,1,5.64-2.19,10.88,10.88,0,0,1,6.49.17,7.33,7.33,0,0,1,4.43,5.56c3,13.83-.93,19-2.37,22.84a40.76,40.76,0,0,0-1.41,4.3,3.53,3.53,0,0,1,.55-.1,4.84,4.84,0,0,1,2.29.44,5.65,5.65,0,0,1,3,3.32,7.14,7.14,0,0,1,.3,1.21,1.78,1.78,0,0,1,.08.53q-.24,7.92,0,15.86c.1,2.29.25,4.29.43,5.88a16,16,0,0,0,.6,3.2,10.61,10.61,0,0,0,2.79,4.34c1.42,1.22,3.47,2,7.24,1.22,3.26-.72,5.27-1.68,6.61-3.07s2.14-3.35,2.65-6.32c.78-4.45,2.32-17.39,2.51-19.8a8.17,8.17,0,0,1,.77-4.33,5,5,0,0,1,2.34-2.14,9.51,9.51,0,0,1,1.1-.4c-.34-.46-.68-.93-1-1.37A19.2,19.2,0,0,1,616,208.1c-.33-.7-.7-1.4-1.09-2.06-.56-1-1.28-2.29-2-3.73a45.86,45.86,0,0,1-4-9.71c-.84-3.39-1-6.88,1.2-9.33,1.91-2.19,5.27-3.1,10.29-2.59a13.94,13.94,0,0,0-.48-1.41,33.22,33.22,0,0,0-4.43-7.49,27.43,27.43,0,0,0-21.83-11ZM565,161c-.53,0-1.08,0-1.61.05-4.29.25-8.34,1.49-11.24,4.55s-4.8,8.11-4.39,16.45a88.28,88.28,0,0,0,1.94,11.25,141.34,141.34,0,0,0,4.85,16.91c2,5.45,4.43,10.21,6.75,12.46a4.4,4.4,0,0,0,3.08,1.55c.92-.05,2-.58,3.39-2.21q3.71-4.47,7.67-8.68a14.9,14.9,0,0,1-4.94-13.38,51.18,51.18,0,0,0,.43-8.39c0-2.25-.2-3.74-.2-4.69v-.13a42.09,42.09,0,0,1,2.52-14.32,24.56,24.56,0,0,1,5.6-9,48.13,48.13,0,0,0-12.23-2.4c-.53,0-1.08-.05-1.61-.05Zm52.61,22.4c-2.88,0-4.49.8-5.35,1.76-1.2,1.38-1.32,3.8-.57,6.78a44.15,44.15,0,0,0,3.73,9.09c.72,1.39,1.41,2.63,2,3.64A20.56,20.56,0,0,1,618.6,207a13.63,13.63,0,0,0,.76,1.53,14.28,14.28,0,0,0,1.19-7.08c-.15-3-.84-6-.72-9.11.11-3.62.83-6,.88-8.76a25.22,25.22,0,0,0-3.14-.22Zm-34.94.51a11.58,11.58,0,0,0-2.62.31,19.56,19.56,0,0,0-4.89,1.91,11,11,0,0,0-1.48,1l-.1.08c0,.64.15,2.13.2,4.35a56.14,56.14,0,0,1-.46,8.83c-1,7.26,4.24,13.26,10.43,13.28a40,40,0,0,1,1.55-4.59c1.72-4.65,5.11-8,2.26-21.25-.47-2.16-1.4-3-2.67-3.53a6.22,6.22,0,0,0-2.22-.35Zm33.6.86h.21a3.6,3.6,0,0,1,.76.09,1.83,1.83,0,0,1,.59.24.66.66,0,0,1,.31.46v0a1.26,1.26,0,0,1-.15.59,3.11,3.11,0,0,1-2.1,1.52,2.5,2.5,0,0,1-1.74-.43,3.81,3.81,0,0,1-.55-.5,1.06,1.06,0,0,1-.27-.55.76.76,0,0,1,.17-.54,2.05,2.05,0,0,1,.5-.39,4.59,4.59,0,0,1,1.59-.48l.68-.06Zm-33.19.71a4.27,4.27,0,0,1,.7.05,4.56,4.56,0,0,1,1.67.53,1.55,1.55,0,0,1,.56.45,1,1,0,0,1,.23.71,1.39,1.39,0,0,1-.31.66,2.87,2.87,0,0,1-.61.55,2.69,2.69,0,0,1-1.91.48,3,3,0,0,1-1.77-1,3.09,3.09,0,0,1-.5-.7,1,1,0,0,1,.63-1.59,3.83,3.83,0,0,1,1.31-.16Zm38.44,31.16h0c-.61.23-1.12.32-1.55.52a1.84,1.84,0,0,0-1,.91,5.21,5.21,0,0,0-.43,2.81,1.84,1.84,0,0,0,.63.3,11.77,11.77,0,0,0,3.3.35,22,22,0,0,0,7.8-1.49,16.76,16.76,0,0,0,4-2.6c-5.92,1.21-9.25.89-11.31.05a6.61,6.61,0,0,1-1.41-.85Zm-34.08.4h-.08c-.23,0-.55.1-1.2.8-1.48,1.65-2,2.7-3.2,3.66s-2.8,1.49-6,2.14a8.13,8.13,0,0,0-2,.61.76.76,0,0,0,.29.22,7.23,7.23,0,0,0,1.55.61,14.86,14.86,0,0,0,5.91.33,10.18,10.18,0,0,0,6.82-4.41,2.2,2.2,0,0,0,.1-2,3.23,3.23,0,0,0-1.39-1.65,3.3,3.3,0,0,0-.88-.27Z"/><path d="M781.45,157.76a7.71,7.71,0,0,1-9.56-3.63l-17.41-24.08L752,126.69l-20.2,27.47a7.38,7.38,0,0,1-9.09,3.57l26-34.92L724.47,91.27a8,8,0,0,1,9.59,3.36L752.11,119l18.15-24.27a7.23,7.23,0,0,1,9-3.37l-9.4,12.47-12.72,16.56a3.37,3.37,0,0,0-.28,4.75,3.57,3.57,0,0,0,.28.27l24.24,32.36ZM660.34,122.38l2.12-10.47C668.29,91.2,692,82.59,708.36,95.4c9.56,7.52,11.95,18.16,11.48,30.15H666c-.87,21.41,14.58,34.34,34.34,27.73a20.56,20.56,0,0,0,13-14.51c1-3.36,2.77-3.94,5.93-3a27.35,27.35,0,0,1-13.07,20,31.66,31.66,0,0,1-36.87-4.71A33.17,33.17,0,0,1,661,131.59a13.72,13.72,0,0,0-.67-3.36c0-1.95,0-3.9,0-5.85Zm5.69-1.45h48.72c-.3-15.52-10.1-26.53-23.16-26.63-14.55-.2-25,10.57-25.6,26.56Z"/><polygon class="cls-7" points="344.67 229.14 360.9 201.03 333.21 185.04 333.21 151.93 300.09 151.93 284.11 124.24 256 140.47 227.89 124.24 211.91 151.93 178.79 151.93 178.79 185.04 151.1 201.03 167.33 229.14 151.1 257.25 178.79 273.23 178.79 306.35 211.91 306.35 227.89 334.04 256 317.81 284.11 334.04 300.09 306.35 333.21 306.35 333.21 273.23 360.9 257.25 344.67 229.14"/><circle class="cls-8" cx="256" cy="227.9" r="76.74"/><path d="M83,744.41H74.78V686.63H83ZM117,718.66H82.2v-7.18H117Zm-.75-32h8.26v57.78h-8.26Z"/><path d="M153.44,744.91a20.62,20.62,0,0,1-8.54-1.65,13.13,13.13,0,0,1-5.66-4.58,11.62,11.62,0,0,1-2-6.65,12.61,12.61,0,0,1,1.69-6.44,11.78,11.78,0,0,1,5.53-4.62q3.84-1.74,10.36-1.73h13.87v5.69H155.17q-5.94,0-8,2a6.39,6.39,0,0,0-2.07,4.79,6.16,6.16,0,0,0,2.56,5.16,11.54,11.54,0,0,0,7.1,1.94,15,15,0,0,0,7.8-2,11.27,11.27,0,0,0,4.83-5.78l1.57,5.45a12.36,12.36,0,0,1-5.53,6.15A19.9,19.9,0,0,1,153.44,744.91Zm14.36-.5v-9.24l-.41-1.74V717.67q0-5-2.93-7.8t-8.79-2.77a23.28,23.28,0,0,0-7.6,1.28,19.82,19.82,0,0,0-6.27,3.43l-3.3-5.95a24,24,0,0,1,8.13-4.16,33.73,33.73,0,0,1,10-1.45q9,0,13.86,4.38T175.31,718v26.41Z"/><path d="M190,744.41V700.66h7.59v11.89l-.74-3a13.42,13.42,0,0,1,6.11-6.94,21.47,21.47,0,0,1,10.56-2.39v7.68a5.3,5.3,0,0,0-.95-.08h-.86q-6.36,0-10.07,3.79t-3.72,11v21.79Z"/><path d="M223.27,744.41V700.66h7.6v11.89l-.75-3a13.46,13.46,0,0,1,6.11-6.94,21.48,21.48,0,0,1,10.57-2.39v7.68a5.3,5.3,0,0,0-1-.08H245q-6.36,0-10.07,3.79t-3.71,11v21.79Z"/><path d="M260.5,692.24a5.29,5.29,0,0,1-3.84-1.48,4.86,4.86,0,0,1-1.53-3.63,5,5,0,0,1,1.53-3.72,5.29,5.29,0,0,1,3.84-1.48,5.38,5.38,0,0,1,3.84,1.44,4.72,4.72,0,0,1,1.52,3.59,5.13,5.13,0,0,1-5.36,5.28Zm-4,52.17V700.66h7.92v43.75Z"/><path d="M292.11,744.91a35.65,35.65,0,0,1-10.36-1.49,24.31,24.31,0,0,1-7.71-3.63l3.3-6.27a29,29,0,0,0,15.35,4.54c3.69,0,6.34-.53,8-1.57a5,5,0,0,0,2.43-4.38,3.87,3.87,0,0,0-1.48-3.22,10.2,10.2,0,0,0-3.93-1.73c-1.62-.38-3.42-.73-5.4-1s-4-.69-5.94-1.16a22.86,22.86,0,0,1-5.45-2,10.21,10.21,0,0,1-4-3.55,10.83,10.83,0,0,1-1.49-6.06,11.21,11.21,0,0,1,2.23-6.94,14.08,14.08,0,0,1,6.31-4.58,26.52,26.52,0,0,1,9.7-1.61,38.62,38.62,0,0,1,8.71,1,21.8,21.8,0,0,1,7.22,2.93l-3.38,6.28a18.87,18.87,0,0,0-6.19-2.73,28.86,28.86,0,0,0-6.44-.74c-3.47,0-6.05.56-7.76,1.69a5,5,0,0,0-2.56,4.34,4.09,4.09,0,0,0,1.53,3.42,11,11,0,0,0,4,1.86,48.47,48.47,0,0,0,5.41,1.11c2,.31,4,.69,5.94,1.16a24.16,24.16,0,0,1,5.41,1.94,10.5,10.5,0,0,1,4,3.46,10.35,10.35,0,0,1,1.53,6,10.65,10.65,0,0,1-2.32,6.85,15,15,0,0,1-6.52,4.5A28.24,28.24,0,0,1,292.11,744.91Z"/><path d="M339.66,744.91A23.44,23.44,0,0,1,328,742a21.31,21.31,0,0,1-8.13-8,22.35,22.35,0,0,1-3-11.51,22.11,22.11,0,0,1,3-11.52,21.55,21.55,0,0,1,8.09-7.88,23.36,23.36,0,0,1,11.72-2.89,23.77,23.77,0,0,1,11.68,2.85,20.84,20.84,0,0,1,8.09,7.88,24.25,24.25,0,0,1,0,23.11,21.18,21.18,0,0,1-8.09,7.93A23.47,23.47,0,0,1,339.66,744.91Zm0-6.94a15,15,0,0,0,7.55-1.9,13.3,13.3,0,0,0,5.24-5.4,16.78,16.78,0,0,0,1.9-8.13,16.45,16.45,0,0,0-1.9-8.13,13.5,13.5,0,0,0-5.24-5.33,15.09,15.09,0,0,0-7.55-1.9,14.84,14.84,0,0,0-7.51,1.9,14.17,14.17,0,0,0-5.29,5.33,16,16,0,0,0-2,8.13,16.26,16.26,0,0,0,2,8.13,14,14,0,0,0,5.29,5.4A14.74,14.74,0,0,0,339.66,738Z"/><path d="M396.7,700.25a20.8,20.8,0,0,1,9.45,2.06,14.83,14.83,0,0,1,6.39,6.28,21.92,21.92,0,0,1,2.32,10.65v25.17h-7.93V720.14q0-6.35-3.09-9.57t-8.71-3.22a15.56,15.56,0,0,0-7.35,1.65,11.36,11.36,0,0,0-4.83,4.87,17.08,17.08,0,0,0-1.69,8v22.53h-7.92V700.66h7.59v11.81l-1.24-3.14a15.2,15.2,0,0,1,6.61-6.69A21.69,21.69,0,0,1,396.7,700.25Z"/><path d="M3.5,843.46V785.68H26a31.57,31.57,0,0,1,13,2.4A18.37,18.37,0,0,1,47.25,795a19.78,19.78,0,0,1,2.89,10.82,19.56,19.56,0,0,1-2.89,10.77A18.68,18.68,0,0,1,39,823.53,31.22,31.22,0,0,1,26,826H8l3.71-3.88v21.37Zm8.25-20.55L8,818.78H25.79q7.92,0,12-3.38t4.08-9.57q0-6.2-4.08-9.58t-12-3.38H8l3.71-4.13Z"/><path d="M79.69,844A23.44,23.44,0,0,1,68,841.07a21.29,21.29,0,0,1-8.13-8,22.41,22.41,0,0,1-3-11.52,22.1,22.1,0,0,1,3-11.51A21.58,21.58,0,0,1,68,802.19a23.46,23.46,0,0,1,11.72-2.89,23.77,23.77,0,0,1,11.68,2.85A20.87,20.87,0,0,1,99.46,810a24.25,24.25,0,0,1,0,23.11,21.15,21.15,0,0,1-8.09,7.92A23.47,23.47,0,0,1,79.69,844Zm0-6.93a15.09,15.09,0,0,0,7.55-1.9,13.39,13.39,0,0,0,5.24-5.41,16.78,16.78,0,0,0,1.9-8.13,16.45,16.45,0,0,0-1.9-8.13,13.48,13.48,0,0,0-5.24-5.32,15,15,0,0,0-7.55-1.9,14.74,14.74,0,0,0-7.51,1.9,14.15,14.15,0,0,0-5.29,5.32,16,16,0,0,0-2,8.13,16.26,16.26,0,0,0,2,8.13,14,14,0,0,0,5.29,5.41A14.84,14.84,0,0,0,79.69,837Z"/><path d="M125.91,844a35.65,35.65,0,0,1-10.36-1.49,24.31,24.31,0,0,1-7.71-3.63l3.3-6.27a26.9,26.9,0,0,0,6.93,3.22,27.48,27.48,0,0,0,8.42,1.32c3.69,0,6.34-.52,8-1.57a4.92,4.92,0,0,0,2.43-4.37A3.82,3.82,0,0,0,135.4,828a10.16,10.16,0,0,0-3.92-1.74q-2.43-.57-5.4-1c-2-.3-4-.69-6-1.15a23.4,23.4,0,0,1-5.44-2,10.29,10.29,0,0,1-4-3.54,11,11,0,0,1-1.48-6.07,11.25,11.25,0,0,1,2.23-6.94,14.16,14.16,0,0,1,6.31-4.58,26.52,26.52,0,0,1,9.7-1.61,38.15,38.15,0,0,1,8.71,1,21.39,21.39,0,0,1,7.22,2.93L140,809.54a18.63,18.63,0,0,0-6.19-2.72,28.37,28.37,0,0,0-6.44-.75q-5.2,0-7.76,1.7a5,5,0,0,0-2.56,4.33,4.08,4.08,0,0,0,1.53,3.42,11,11,0,0,0,4,1.86A50.74,50.74,0,0,0,128,818.5c2,.3,4,.69,5.94,1.15a24.66,24.66,0,0,1,5.41,1.94,10.53,10.53,0,0,1,4,3.47,10.32,10.32,0,0,1,1.52,5.94,10.62,10.62,0,0,1-2.31,6.85,14.87,14.87,0,0,1-6.52,4.5A28.24,28.24,0,0,1,125.91,844Z"/><path d="M148.45,806.24v-6.52h27.9v6.52ZM169.74,844q-6.6,0-10.23-3.55c-2.43-2.36-3.63-5.75-3.63-10.15V790.14h7.92v39.79a7.72,7.72,0,0,0,1.77,5.45,6.65,6.65,0,0,0,5.08,1.89,9.31,9.31,0,0,0,6.19-2.06l2.48,5.7a11.68,11.68,0,0,1-4.34,2.31A18.59,18.59,0,0,1,169.74,844Z"/><path d="M185.26,824.23v-6.85h22.2v6.85Z"/><path d="M247.25,844.13a33.05,33.05,0,0,1-12.18-2.19,28.5,28.5,0,0,1-9.65-6.19,29,29,0,0,1-6.4-9.37,31.32,31.32,0,0,1,0-23.61,28.74,28.74,0,0,1,16.14-15.56,34.79,34.79,0,0,1,24.51.08,25.37,25.37,0,0,1,9.62,6.73l-5.37,5.2a21.46,21.46,0,0,0-7.42-5.16,23.26,23.26,0,0,0-8.84-1.69,24.34,24.34,0,0,0-9,1.65,21.69,21.69,0,0,0-7.22,4.62,21,21,0,0,0-4.74,7.06,24,24,0,0,0,0,17.75,20.85,20.85,0,0,0,4.74,7.06,21.69,21.69,0,0,0,7.22,4.62,24.34,24.34,0,0,0,9,1.65,23.07,23.07,0,0,0,8.84-1.69,21,21,0,0,0,7.42-5.24l5.37,5.2a25.8,25.8,0,0,1-9.62,6.77A32.54,32.54,0,0,1,247.25,844.13Z"/><path d="M296.86,844a23.44,23.44,0,0,1-11.68-2.89,21.29,21.29,0,0,1-8.13-8,22.41,22.41,0,0,1-3-11.52,22.1,22.1,0,0,1,3-11.51,21.65,21.65,0,0,1,8.09-7.89,23.49,23.49,0,0,1,11.72-2.89,23.74,23.74,0,0,1,11.68,2.85,20.87,20.87,0,0,1,8.09,7.89,24.25,24.25,0,0,1,0,23.11,21.15,21.15,0,0,1-8.09,7.92A23.44,23.44,0,0,1,296.86,844Zm0-6.93a15.07,15.07,0,0,0,7.55-1.9,13.39,13.39,0,0,0,5.24-5.41,16.78,16.78,0,0,0,1.9-8.13,16.45,16.45,0,0,0-1.9-8.13,13.48,13.48,0,0,0-5.24-5.32,15,15,0,0,0-7.55-1.9,14.74,14.74,0,0,0-7.51,1.9,14.29,14.29,0,0,0-5.29,5.32,16,16,0,0,0-2,8.13,16.26,16.26,0,0,0,2,8.13,14.18,14.18,0,0,0,5.29,5.41A14.84,14.84,0,0,0,296.86,837Z"/><path d="M348.61,844a22.69,22.69,0,0,1-11.35-2.81,20.54,20.54,0,0,1-7.88-7.84,25.13,25.13,0,0,1,0-23.4,20.64,20.64,0,0,1,7.88-7.8,22.8,22.8,0,0,1,11.35-2.81,20.22,20.22,0,0,1,10,2.48,18.11,18.11,0,0,1,7.14,7.43,25.75,25.75,0,0,1,2.68,12.38,26.36,26.36,0,0,1-2.6,12.38,17.77,17.77,0,0,1-7.05,7.47A20.28,20.28,0,0,1,348.61,844Zm.66-6.93a14.87,14.87,0,0,0,7.47-1.9,13.77,13.77,0,0,0,5.29-5.41,16.57,16.57,0,0,0,1.94-8.13,16.25,16.25,0,0,0-1.94-8.13,13.87,13.87,0,0,0-5.29-5.32,15.71,15.71,0,0,0-15,0,14.19,14.19,0,0,0-5.28,5.32,16,16,0,0,0-2,8.13,16.26,16.26,0,0,0,2,8.13,14.09,14.09,0,0,0,5.28,5.41A14.86,14.86,0,0,0,349.27,837Zm15,6.43v-11.8l.49-10.15-.82-10.15V782.22h7.92v61.24Z"/><path d="M390.79,791.3a5.26,5.26,0,0,1-3.83-1.49,4.86,4.86,0,0,1-1.53-3.63,5,5,0,0,1,1.53-3.72,5.25,5.25,0,0,1,3.83-1.48,5.38,5.38,0,0,1,3.84,1.44,4.75,4.75,0,0,1,1.53,3.6,5.16,5.16,0,0,1-5.37,5.28Zm-4,52.16V799.72h7.93v43.74Z"/><path d="M433.22,799.3a20.61,20.61,0,0,1,9.45,2.07,14.72,14.72,0,0,1,6.4,6.27,22,22,0,0,1,2.31,10.65v25.17h-7.92V819.2q0-6.36-3.1-9.58c-2.06-2.14-5-3.22-8.71-3.22a15.55,15.55,0,0,0-7.34,1.65,11.3,11.3,0,0,0-4.83,4.87,17.08,17.08,0,0,0-1.7,8v22.53h-7.92V799.72h7.59v11.8l-1.23-3.14a15.16,15.16,0,0,1,6.6-6.68A21.61,21.61,0,0,1,433.22,799.3Z"/><path d="M484.23,841.65A23.61,23.61,0,0,1,472.88,839,20.47,20.47,0,0,1,465,831.5a22.43,22.43,0,0,1,0-22.17,20.25,20.25,0,0,1,7.92-7.38,23.82,23.82,0,0,1,11.35-2.65,23,23,0,0,1,10.24,2.27,17.41,17.41,0,0,1,7.39,7,26.8,26.8,0,0,1,0,23.69,17.91,17.91,0,0,1-7.39,7.06A22.23,22.23,0,0,1,484.23,841.65Zm1,18.32a40.49,40.49,0,0,1-11.68-1.69,24.19,24.19,0,0,1-9.2-4.83l3.8-6.11a22.29,22.29,0,0,0,7.51,4.17A28.52,28.52,0,0,0,485,853q7.75,0,11.39-3.63T500,838.35V829.1l.82-8.66-.41-8.76v-12h7.51v37.8q0,11.57-5.77,17T485.22,860Zm-.08-25.25a16.17,16.17,0,0,0,7.76-1.82,13.52,13.52,0,0,0,5.32-5,15.18,15.18,0,0,0,0-14.85,13.28,13.28,0,0,0-5.32-5,16.5,16.5,0,0,0-7.76-1.77,16.72,16.72,0,0,0-7.8,1.77,13.26,13.26,0,0,0-5.36,5,15.18,15.18,0,0,0,0,14.85,13.49,13.49,0,0,0,5.36,5A16.39,16.39,0,0,0,485.14,834.72Z"/></g></g></svg>