<?xml version="1.0" encoding="UTF-8"?>
<svg id="Layer_2" data-name="Layer 2" xmlns="http://www.w3.org/2000/svg" viewBox="0 0 193.39 144.21">
  <defs>
    <style>
      .cls-1, .cls-2, .cls-3, .cls-4, .cls-5 {
        stroke-miterlimit: 10;
      }

      .cls-1, .cls-2, .cls-4, .cls-5 {
        stroke-width: .75px;
      }

      .cls-1, .cls-6, .cls-7, .cls-8 {
        stroke: #000;
      }

      .cls-2, .cls-4, .cls-5 {
        stroke: #fff;
      }

      .cls-9 {
        letter-spacing: -.01em;
      }

      .cls-6 {
        stroke-width: .63px;
      }

      .cls-6, .cls-7, .cls-4, .cls-8 {
        fill: none;
      }

      .cls-6, .cls-7, .cls-8 {
        stroke-linecap: round;
        stroke-linejoin: round;
      }

      .cls-10, .cls-5 {
        fill: #0071b4;
      }

      .cls-11 {
        fill: #fff;
      }

      .cls-7 {
        stroke-width: 2.54px;
      }

      .cls-12 {
        letter-spacing: -.02em;
      }

      .cls-13 {
        letter-spacing: -.05em;
      }

      .cls-3 {
        stroke: #000000;
        stroke-width: .32px;
      }

      .cls-8 {
        stroske-width: .95px;
      }

      .cls-14 {
        letter-spacing: 0em;
      }

      .cls-15 {
        letter-spacing: 0em;
      }

      .cls-16 {
        font-family: MontserratRoman-Medium, Montserrat;
        font-size: 4px;
        font-variation-settings: 'wght' 500;
        font-weight: 500;
      }

      .cls-17 {
        letter-spacing: 0em;
      }

      .cls-18 {
        letter-spacing: -.02em;
      }

      .cls-19 {
        fill-rule: evenodd;
      }
    </style>
  </defs>
  <g id="Layer_1-2" data-name="Layer 1">
    <g id="Layer_1-2" data-name="Layer 1-2">
      <g>
        <path id="path3796" class="cls-7" d="M49.28,114.26l16.03-.2,12.13-8.74"/>
        <path id="path3798" class="cls-7" d="M77.43,140.71l-9.38-18.02,13.2,13.12"/>
        <path id="path3800" class="cls-7" d="M68.07,122.72l-5.22-16.92"/>
        <g>
          <path id="path5748" class="cls-11" d="M65.11,88.54c.12,.39-.1,.8-.49,.92s-.8-.1-.92-.49,.1-.8,.49-.92,.8,.1,.92,.49Z"/>
          <path id="path3802" class="cls-7" d="M45.93,97.74c-2.07-6.7,2.15-13.96,9.43-16.21,7.28-2.25,14.86,1.36,16.93,8.07h0c2.08,6.72-2.15,13.97-9.42,16.22"/>
          <path id="path3802-2" class="cls-7" d="M62.87,105.82c-7.28,2.25-14.86-1.36-16.93-8.07"/>
          <path id="path5748-2" d="M52.75,92.36c.12,.39-.1,.8-.49,.92s-.8-.1-.92-.49,.1-.8,.49-.92,.8,.1,.92,.49Z"/>
          <path class="cls-8" d="M55.37,93.91c.63,.12,1.93,.29,3.46-.17,1.58-.48,2.58-1.38,3.03-1.83"/>
          <path d="M64.77,89.26c-.06-.18,.04-.36,.22-.42,.05-.01,.1-.02,.15-.01,0-.09,0-.19-.03-.28-.12-.39-.53-.6-.92-.49h0s.01,.03,.02,.05c.11,.35-.09,.73-.44,.84-.02,0-.04,.01-.06,.02,0,0,0,0,0,.01,.12,.39,.53,.6,.92,.49,.07-.02,.14-.06,.2-.1-.02-.03-.04-.07-.06-.1h0Z"/>
          <path id="path5748-3" class="cls-11" d="M52.75,92.36c.12,.39-.1,.8-.49,.92s-.8-.1-.92-.49,.1-.8,.49-.92,.8,.1,.92,.49Z"/>
          <path d="M52.41,93.07c-.06-.18,.04-.36,.22-.42,.05-.01,.1-.02,.15-.01,0-.09,0-.19-.03-.28-.12-.39-.53-.6-.92-.49h0s.01,.03,.02,.05c.11,.35-.09,.73-.44,.84-.02,0-.04,.01-.06,.02,0,0,0,0,0,.01,.12,.39,.53,.6,.92,.49,.07-.02,.14-.06,.2-.1-.02-.03-.04-.07-.06-.1h0Z"/>
          <path class="cls-3" d="M55.24,93.76c.57,1.84,2.52,2.87,4.35,2.3,1.84-.57,2.87-2.52,2.3-4.35"/>
          <path class="cls-6" d="M61.44,91.13c.21,.56,.61,.84,1.21,.86"/>
          <path class="cls-6" d="M55.36,93.01c.14,.58-.03,1.04-.51,1.39"/>
        </g>
      </g>
    </g>
    <g>
      <polygon class="cls-4" points="97.48 78.47 97.48 78.47 97.48 65.78 97.48 78.47"/>
      <polygon class="cls-2" points="97.46 119.49 97.46 123.65 78.08 121.2 78.08 143.67 97.48 143.67 97.48 80.65 97.46 114.07 97.46 119.49"/>
      <path class="cls-2" d="M97.48,78.47h0s28.92-8.8,28.92-8.8c.03,.01-.03-.01,0,0,1.39-.66,2.7-1.51,3.93-2.54,1.23-1.03,2.52-2.35,3.85-3.95L188.94,1.33h0s-10.65,12.04-10.65,12.04h-21.93l-41.27,46.72c-1.27,1.54-2.67,2.62-4.2,3.25-1.53,.63-3.57,.95-6.1,.95h-7.3V.38h-19.4v63.9H19.78V.38H.38V111.38l19.4-6.4v8.85L.38,111.38v32.3H19.78V78.47h58.3v6.06l19.4-6.06"/>
      <path class="cls-2" d="M112.37,79.9c.33,.1,.64,.21,.91,.34,.36,.17,.72,.36,1.07,.58-.38-.24-.76-.45-1.15-.63-.25-.12-.53-.21-.83-.29Z"/>
      <path class="cls-2" d="M162.78,6.09l-6.43,7.28,6.61-7.44c-.06,.05-.12,.1-.18,.16Z"/>
      <path class="cls-2" d="M192.58,143.79l-57-66.9c-1.4-1.87-2.83-3.38-4.3-4.55-.74-.58-1.51-1.1-2.33-1.54,.79,.43,1.54,.93,2.25,1.49,1.47,1.17,2.9,2.68,4.3,4.55l49.33,57.86-25.06-3.17-27.83-31.47,38.47,43.62,22.18,.11Z"/>
      <polygon class="cls-10" points="19.77 104.98 .38 111.38 .37 111.38 .38 111.38 19.77 113.83 19.77 104.98"/>
      <path class="cls-5" d="M184.84,134.7l-49.33-57.86c-1.4-1.87-2.83-3.38-4.3-4.55-.71-.56-1.46-1.06-2.25-1.49-.81-.44-1.66-.82-2.55-1.12-.03-.01,.02,.01-.02,0l-28.9,8.8h0s0,0,0,0h0s-19.4,6.06-19.4,6.06h-.02s0,36.66,0,36.66h0s19.39,2.45,19.39,2.45v-4.17s0-5.41,0-5.41l.02-33.42v-2.18s8.72,.71,8.72,.71c2.68,.24,4.69,.29,6.17,.71,.29,.08,.57,.17,.83,.29,.39,.18,.77,.39,1.15,.63,1.11,.71,2.15,1.68,3.15,2.92l14.43,16.32,27.83,31.47,25.06,3.17Z"/>
      <polygon class="cls-5" points="188.93 1.33 188.93 1.33 164.51 4.17 162.95 5.92 156.35 13.36 156.34 13.37 156.34 13.37 178.27 13.37 188.93 1.33"/>
    </g>
    <line class="cls-4" x1="136.41" y1="105.11" x2="126.4" y2="69.68"/>
    <line class="cls-4" x1="115.31" y1="81.5" x2="126.4" y2="69.68"/>
    <line class="cls-4" x1="136.41" y1="105.11" x2="171.17" y2="118.41"/>
    <line class="cls-4" x1="136.41" y1="105.11" x2="143.53" y2="86.24"/>
    <line class="cls-4" x1="78.08" y1="121.2" x2="97.46" y2="105.11"/>
    <line class="cls-4" x1="97.46" y1="105.11" x2="78.08" y2="84.54"/>
    <g>
      <polygon class="cls-4" points="97.48 78.52 97.48 78.52 97.48 65.83 97.48 78.52"/>
      <polygon class="cls-2" points="97.46 119.53 97.46 123.7 78.08 121.25 78.08 143.72 97.48 143.72 97.48 80.7 97.46 114.12 97.46 119.53"/>
      <path class="cls-2" d="M97.48,78.52h0s28.92-8.8,28.92-8.8c.03,.01-.03-.01,0,0,1.39-.66,2.7-1.51,3.93-2.54,1.23-1.03,2.52-2.35,3.85-3.95L188.94,1.37h0s-10.65,12.04-10.65,12.04h-21.93l-41.27,46.72c-1.27,1.54-2.67,2.62-4.2,3.25-1.53,.63-3.57,.95-6.1,.95h-7.3V.42h-19.4v63.9H19.78V.42H.38V111.42l19.4-6.4v8.85L.38,111.43v32.3H19.78V78.52h58.3v6.06l19.4-6.06"/>
      <path class="cls-2" d="M112.37,79.94c.33,.1,.64,.21,.91,.34,.36,.17,.72,.36,1.07,.58-.38-.24-.76-.45-1.15-.63-.25-.12-.53-.21-.83-.29Z"/>
      <path class="cls-2" d="M162.78,6.13l-6.43,7.28,6.61-7.44c-.06,.05-.12,.1-.18,.16Z"/>
      <path class="cls-2" d="M192.58,143.83l-57-66.9c-1.4-1.87-2.83-3.38-4.3-4.55-.74-.58-1.51-1.1-2.33-1.54,.79,.43,1.54,.93,2.25,1.49,1.47,1.17,2.9,2.68,4.3,4.55l49.33,57.86-25.06-3.17-27.83-31.47,38.47,43.62,22.18,.11Z"/>
      <path class="cls-5" d="M184.84,134.74l-49.33-57.86c-1.4-1.87-2.83-3.38-4.3-4.55-.71-.56-1.46-1.06-2.25-1.49-.81-.44-1.66-.82-2.55-1.12-.03-.01,.02,.01-.02,0l-28.9,8.8h0s0,0,0,0h0s-19.4,6.06-19.4,6.06h-.02s0,36.66,0,36.66h0s19.39,2.45,19.39,2.45v-4.17s0-5.41,0-5.41l.02-33.42v-2.18s8.72,.71,8.72,.71c2.68,.24,4.69,.29,6.17,.71,.29,.08,.57,.17,.83,.29,.39,.18,.77,.39,1.15,.63,1.11,.71,2.15,1.68,3.15,2.92l14.43,16.32,27.83,31.47,25.06,3.17Z"/>
      <polygon class="cls-5" points="188.93 1.38 188.93 1.37 164.51 4.22 162.95 5.97 156.35 13.41 156.34 13.42 156.34 13.42 178.27 13.42 188.93 1.38"/>
    </g>
    <line class="cls-4" x1="136.41" y1="105.15" x2="159.62" y2="105.15"/>
    <line class="cls-4" x1="136.41" y1="105.15" x2="126.4" y2="69.72"/>
    <line class="cls-4" x1="115.31" y1="81.55" x2="126.4" y2="69.72"/>
    <line class="cls-4" x1="136.41" y1="105.15" x2="171.17" y2="118.46"/>
    <line class="cls-4" x1="136.41" y1="105.15" x2="143.53" y2="86.29"/>
    <line class="cls-4" x1="78.08" y1="121.25" x2="97.46" y2="105.15"/>
    <line class="cls-4" x1="97.46" y1="105.15" x2="78.08" y2="84.58"/>
    <line class="cls-4" x1="97.46" y1="105.04" x2="78.08" y2="105.04"/>
    <line class="cls-1" x1="99.67" y1="77.05" x2="93" y2="79.11"/>
    <line class="cls-4" x1=".38" y1="111.38" x2="19.77" y2="113.83"/>
    <line class="cls-4" x1=".38" y1="111.38" x2="19.77" y2="104.98"/>
    <path class="cls-19" d="M38.55,111.9l10.37,12.13,.94,2.15c.14,.32,.51,.46,.83,.32s.46-.51,.33-.83l-.94-2.15-1.77-15.88-1.33,.58,.64,1.46-1.51,.66-.64-1.46-1.42,.62-.29,.13-1.64-3.77c-.13-.3-.13-.63-.01-.91,.11-.29,.33-.53,.63-.66s.63-.13,.91-.02h0c.28,.11,.52,.33,.66,.63l.08,.18,.82-.36-.08-.18c-.23-.52-.65-.91-1.15-1.1h0s0,0,0,0c-.5-.19-1.07-.2-1.59,.03s-.91,.65-1.1,1.15-.2,1.07,.03,1.59l1.64,3.77-.21,.09-1.35,.59,.64,1.46-1.53,.66-.64-1.46-1.31,.57Z"/>
    <text class="cls-16" transform="translate(32.5 130.79)"><tspan x="0" y="0">Hi I’m Ha</tspan><tspan class="cls-14" x="18.53" y="0">rr</tspan><tspan class="cls-15" x="21.76" y="0">ison!</tspan><tspan class="cls-13" x="-10.48" y="4.8">W</tspan><tspan x="-6.2" y="4.8">el</tspan><tspan class="cls-17" x="-2.64" y="4.8">c</tspan><tspan x="-.38" y="4.8">ome </tspan><tspan class="cls-12" x="9.91" y="4.8">t</tspan><tspan x="11.49" y="4.8">o </tspan><tspan class="cls-9" x="15.11" y="4.8">m</tspan><tspan x="19.3" y="4.8">y </tspan><tspan class="cls-18" x="22.61" y="4.8">w</tspan><tspan class="cls-15" x="26.14" y="4.8">ebsi</tspan><tspan class="cls-12" x="34.44" y="4.8">t</tspan><tspan x="36.02" y="4.8" xml:space="preserve">e!  </tspan></text>
  </g>
</svg>