<?xml version="1.0" encoding="UTF-8"?>
<svg id="Layer_2" data-name="Layer 2" xmlns="http://www.w3.org/2000/svg" viewBox="0 0 900 187.52">
  <defs>
    <style>
      .cls-1 {
        fill: #0271bc;
      }

      .cls-2 {
        fill: #00a8e0;
      }

      .cls-3 {
        fill: #03c3ed;
      }

      .cls-4 {
        fill: #008dcf;
      }

      .cls-5 {
        fill: #32def6;
      }
    </style>
  </defs>
  <g id="wave1" data-name="Layer 1">
    <path class="cls-5" d="M0,22.52l21.5-3.2c21.5-3.1,64.5-9.5,107.3-8.3,42.9,1.2,85.5,9.8,128.4,18.2,42.8,8.3,85.8,16.3,128.6,12.1,42.9-4.1,85.5-20.5,128.4-30.8,42.8-10.3,85.8-14.7,128.6-5.5,42.9,9.2,85.5,31.8,128.4,36.3,42.8,4.5,85.8-9.1,107.3-16l21.5-6.8V187.52H0V22.52Z"/>
    <path class="cls-3" d="M0,55.52l21.5-4.5c21.5-4.5,64.5-13.5,107.3-13,42.9,.5,85.5,10.5,128.4,19.3,42.8,8.9,85.8,16.5,128.6,13,42.9-3.5,85.5-18.1,128.4-27,42.8-8.8,85.8-11.8,128.6-11,42.9,.9,85.5,5.5,128.4,14.9,42.8,9.3,85.8,23.3,107.3,30.3l21.5,7v103H0V55.52Z"/>
    <path class="cls-2" d="M0,57.52l21.5,5c21.5,5,64.5,15,107.3,19.7,42.9,4.6,85.5,4,128.4,4.5,42.8,.5,85.8,2.1,128.6-1,42.9-3.2,85.5-11.2,128.4-16.4,42.8-5.1,85.8-7.5,128.6-3.5,42.9,4,85.5,14.4,128.4,23.7,42.8,9.3,85.8,17.7,107.3,21.8l21.5,4.2v72H0V57.52Z"/>
    <path class="cls-4" d="M0,135.52l21.5-6.5c21.5-6.5,64.5-19.5,107.3-20.8,42.9-1.4,85.5,9,128.4,11.1,42.8,2.2,85.8-3.8,128.6-6.1,42.9-2.4,85.5-1,128.4-3.5,42.8-2.5,85.8-8.9,128.6-11,42.9-2.2,85.5-.2,128.4,2.6,42.8,2.9,85.8,6.5,107.3,8.4l21.5,1.8v76H0v-52Z"/>
    <path class="cls-1" d="M0,163.52l21.5-3c21.5-3,64.5-9,107.3-13.8,42.9-4.9,85.5-8.5,128.4-6,42.8,2.5,85.8,11.1,128.6,12.3,42.9,1.2,85.5-5.2,128.4-4.7,42.8,.5,85.8,7.9,128.6,11.2,42.9,3.3,85.5,2.7,128.4-2.2,42.8-4.8,85.8-13.8,107.3-18.3l21.5-4.5v53H0v-24Z"/>
  </g>
</svg>