<?xml version="1.0" encoding="UTF-8"?>
<svg id="Layer_2" data-name="Layer 2" xmlns="http://www.w3.org/2000/svg" viewBox="0 0 900.13 190.52">
  <defs>
    <style>

      .cls-1 {
        fill: #32def6;
      }
      .cls-2 {
        fill: #00c3ed;
      }

      .cls-3 {
        fill: #00a8e0;
      }

      .cls-4 {
        fill: #008dcf;
      }

      .cls-5 {
        fill: #0271bc;
      }
    </style>
  </defs>
  <g id="wave2" data-name="Layer 1">
    <path class="cls-1" d="M.13,39.74l21.5,1.47c21.5,1.56,64.5,4.51,107.3-2.05,42.9-6.56,85.5-22.62,128.4-31.63,42.8-9.01,85.8-10.98,128.6-.16,42.9,10.82,85.5,34.25,128.4,35.24,42.8,.98,85.8-20.65,128.6-31.55,42.9-10.9,85.5-11.23,128.4-.66,42.8,10.49,85.8,31.79,107.3,42.45l21.5,10.65v127.01H.13V39.74Z"/>
    <path class="cls-2" d="M0,52.52l21.5,5.7c21.5,5.6,64.5,17,107.3,12.1,42.9-4.8,85.5-25.8,128.4-36.1,42.8-10.4,85.8-10,128.6,1.1,42.9,11.2,85.5,33.2,128.4,33,42.8-.1,85.8-22.5,128.6-26,42.9-3.5,85.5,11.9,128.4,23,42.8,11.2,85.8,18.2,107.3,21.7l21.5,3.5v100H0V52.52Z"/>
    <path class="cls-3" d="M0,115.52l21.5-.3c21.5-.4,64.5-1,107.3-7.9,42.9-6.8,85.5-19.8,128.4-28.3,42.8-8.5,85.8-12.5,128.6-9.7,42.9,2.9,85.5,12.5,128.4,16.2,42.8,3.7,85.8,1.3,128.6,1.2,42.9-.2,85.5,1.8,128.4,4.6,42.8,2.9,85.8,6.5,107.3,8.4l21.5,1.8v89H0V115.52Z"/>
    <path class="cls-4" d="M0,99.52l21.5,4.2c21.5,4.1,64.5,12.5,107.3,12.8,42.9,.3,85.5-7.3,128.4-6.3,42.8,1,85.8,10.6,128.6,9.6,42.9-1,85.5-12.6,128.4-12.5,42.8,.2,85.8,12.2,128.6,12,42.9-.1,85.5-12.5,128.4-10.5,42.8,2,85.8,18.4,107.3,26.5l21.5,8.2v47H0V99.52Z"/>
    <path class="cls-5" d="M0,138.52l21.5-1c21.5-1,64.5-3,107.3-1.2,42.9,1.9,85.5,7.5,128.4,12.2,42.8,4.7,85.8,8.3,128.6,6.5,42.9-1.8,85.5-9.2,128.4-11.3,42.8-2.2,85.8,.8,128.6-.2,42.9-1,85.5-6,128.4-8.3,42.8-2.4,85.8-2,107.3-1.9l21.5,.2v57H0v-52Z"/>
  </g>
</svg>