<svg xmlns="http://www.w3.org/2000/svg" viewBox="0 0 1401.86 1080.53"><defs><style>.cls-1,.cls-2{fill:none;stroke:#000;stroke-linecap:round;stroke-linejoin:round;}.cls-1{stroke-width:20px;}.cls-2{stroke-width:3px;}.cls-3{stroke:#606060;stroke-miterlimit:10;}</style></defs><g id="Layer_2" data-name="Layer 2"><g id="Layer_1-2" data-name="Layer 1"><path d="M730.6,602.42H408.71a14,14,0,0,0-13.46,10.15l-28,98a11.64,11.64,0,0,0-.07,1.56,12.45,12.45,0,0,0-.46,2.28v307.9a14,14,0,0,0,14,14h56v44.26h28v-44.26h559.82v44.26h28v-44.26h56a14,14,0,0,0,14-14V714.38a11.67,11.67,0,0,0-.46-2.28c-.09-.52.07-1-.07-1.56l-28-98a14,14,0,0,0-13.46-10.16h-70m-28,0H758.6m-339.34,28h650.67l20,70H399.28Zm675.23,377.87H394.72V728.38h699.76v279.9Z"/><path id="path5748" d="M832.41,123.85a8.73,8.73,0,1,1-8.73-8.73A8.72,8.72,0,0,1,832.41,123.85Z"/><path id="path3802" class="cls-1" d="M582.26,161.16c0-83.44,73.37-151.12,164-151.16S910.29,77.58,910.33,161v.14c0,83.45-80.36,151.13-171,151.17"/><path id="path3802-2" data-name="path3802" class="cls-1" d="M739.37,312.33c-90.59,0-157.06-67.58-157.11-151"/><path id="path5748-2" data-name="path5748" d="M678.65,123.85a8.73,8.73,0,1,1-8.72-8.73A8.71,8.71,0,0,1,678.65,123.85Z"/><path class="cls-2" d="M703,150.68a85.17,85.17,0,0,0,80.8,0"/><path id="path5748-3" data-name="path5748" d="M678.65,123.85a8.73,8.73,0,1,1-8.72-8.73A8.71,8.71,0,0,1,678.65,123.85Z"/><path class="cls-3" d="M702,148.53a41.38,41.38,0,1,0,82.76,0"/><path id="path3796" class="cls-1" d="M489.11,376.54,742,449l226.46-76.35"/><path id="path3800" class="cls-1" d="M743.4,602.42l3-290.09"/><path d="M884.56,602.42v-70a98.05,98.05,0,0,0-97.89-98H702.53a98,98,0,0,0-97.88,98v70m28-70a70,70,0,0,1,69.89-70h84.14a70,70,0,0,1,69.9,70v70H632.64v-70Z"/><path d="M190.22,232.36H183V182h7.2Zm29.59-22.47H189.5v-6.26h30.31ZM219.17,182h7.2v50.4h-7.2Z"/><path d="M243.93,186.85a4.59,4.59,0,0,1-3.34-1.29,4.26,4.26,0,0,1-1.34-3.17,4.32,4.32,0,0,1,1.34-3.24,4.6,4.6,0,0,1,3.34-1.3,4.68,4.68,0,0,1,3.35,1.26,4.14,4.14,0,0,1,1.33,3.14,4.48,4.48,0,0,1-4.68,4.6Zm-3.45,45.51V194.2h6.91v38.16Z"/><path d="M263.73,232.79a4.6,4.6,0,0,1-3.38-1.37,4.43,4.43,0,0,1-1.37-3.24,4.37,4.37,0,0,1,1.37-3.31,4.75,4.75,0,0,1,3.38-1.3,4.64,4.64,0,0,1,3.32,7.85A4.39,4.39,0,0,1,263.73,232.79Zm-2.8-16.34L259.63,182h8.14l-1.37,34.49Z"/><path d="M0,318.76v-50.4H7.2v50.4Z"/><path d="M18.58,285l3.6-14.62.93,4.18a4.93,4.93,0,0,1-3.49-1.3,4.44,4.44,0,0,1-1.4-3.45,4.68,4.68,0,0,1,1.4-3.57A4.83,4.83,0,0,1,23,264.9a4.37,4.37,0,0,1,3.38,1.41,4.92,4.92,0,0,1,1.3,3.49c0,.43,0,.87-.07,1.33a9,9,0,0,1-.33,1.55c-.17.57-.42,1.32-.75,2.23L23.11,285Z"/><path d="M85.39,280.24a17.71,17.71,0,0,1,8.14,1.8A12.81,12.81,0,0,1,99,287.51a19.55,19.55,0,0,1,2,9.29v22H94.1V297.59q0-5.55-2.59-8.35a9.41,9.41,0,0,0-7.27-2.81,12.28,12.28,0,0,0-6,1.44,9.69,9.69,0,0,0-4,4.25,15.61,15.61,0,0,0-1.4,7v19.66H65.88V297.59q0-5.55-2.56-8.35c-1.7-1.87-4.14-2.81-7.3-2.81a12.11,12.11,0,0,0-6,1.44,9.87,9.87,0,0,0-4,4.25,15.19,15.19,0,0,0-1.44,7v19.66H37.65V280.6h6.63v10.15l-1.08-2.59a13,13,0,0,1,5.54-5.83,17.53,17.53,0,0,1,8.72-2.09,16.35,16.35,0,0,1,9.43,2.7,12.79,12.79,0,0,1,5.18,8.17L69.26,290a14.41,14.41,0,0,1,6-7.06A18.86,18.86,0,0,1,85.39,280.24Z"/><path d="M141.33,318.76h-7.2v-50.4h7.2Zm29.6-22.47H140.61V290h30.32Zm-.65-27.93h7.2v50.4h-7.2Z"/><path d="M202.75,319.19a18,18,0,0,1-7.45-1.44,11.35,11.35,0,0,1-4.93-4,10,10,0,0,1-1.73-5.79,10.94,10.94,0,0,1,1.47-5.62,10.29,10.29,0,0,1,4.83-4,22.25,22.25,0,0,1,9-1.51h12.1v5H204.26q-5.17,0-7,1.72a5.6,5.6,0,0,0-1.8,4.18,5.37,5.37,0,0,0,2.23,4.5,10,10,0,0,0,6.19,1.69,13.06,13.06,0,0,0,6.81-1.73,9.86,9.86,0,0,0,4.21-5l1.37,4.76a10.79,10.79,0,0,1-4.83,5.36A17.32,17.32,0,0,1,202.75,319.19Zm12.53-.43v-8.07l-.36-1.51V295.43a8.86,8.86,0,0,0-2.56-6.8q-2.55-2.42-7.67-2.42a20.32,20.32,0,0,0-6.62,1.12,17,17,0,0,0-5.47,3l-2.88-5.19a20.93,20.93,0,0,1,7.09-3.63,29.63,29.63,0,0,1,8.68-1.26q7.84,0,12.09,3.81t4.25,11.67v23Z"/><path d="M234.65,318.76V280.6h6.62V291l-.65-2.6a11.7,11.7,0,0,1,5.33-6,18.6,18.6,0,0,1,9.22-2.09v6.69a6.2,6.2,0,0,0-.83-.07h-.76a11.74,11.74,0,0,0-8.78,3.31q-3.24,3.31-3.24,9.58v19Z"/><path d="M263.66,318.76V280.6h6.63V291l-.65-2.6a11.66,11.66,0,0,1,5.33-6,18.56,18.56,0,0,1,9.21-2.09v6.69a6.06,6.06,0,0,0-.83-.07h-.75a11.76,11.76,0,0,0-8.79,3.31q-3.24,3.31-3.24,9.58v19Z"/><path d="M296.13,273.25a4.59,4.59,0,0,1-3.34-1.29,4.26,4.26,0,0,1-1.34-3.17,4.32,4.32,0,0,1,1.34-3.24,4.6,4.6,0,0,1,3.34-1.3,4.68,4.68,0,0,1,3.35,1.26,4.14,4.14,0,0,1,1.33,3.14,4.48,4.48,0,0,1-4.68,4.6Zm-3.45,45.51V280.6h6.91v38.16Z"/><path d="M323.71,319.19a30.88,30.88,0,0,1-9-1.3,21.34,21.34,0,0,1-6.73-3.16l2.88-5.48a23.47,23.47,0,0,0,6.05,2.81,23.9,23.9,0,0,0,7.34,1.15c3.22,0,5.53-.45,7-1.36a4.31,4.31,0,0,0,2.12-3.82,3.36,3.36,0,0,0-1.29-2.81,9,9,0,0,0-3.42-1.51c-1.42-.33-3-.64-4.72-.9s-3.45-.6-5.18-1a20.41,20.41,0,0,1-4.75-1.73,8.91,8.91,0,0,1-3.46-3.09,9.59,9.59,0,0,1-1.29-5.29,9.77,9.77,0,0,1,1.94-6.05,12.29,12.29,0,0,1,5.51-4,23.13,23.13,0,0,1,8.46-1.4,33.31,33.31,0,0,1,7.59.9,18.91,18.91,0,0,1,6.3,2.55l-3,5.48a16.15,16.15,0,0,0-5.4-2.38,25,25,0,0,0-5.62-.65c-3,0-5.28.49-6.76,1.48A4.39,4.39,0,0,0,316,291.4a3.59,3.59,0,0,0,1.34,3,9.79,9.79,0,0,0,3.45,1.62,45.43,45.43,0,0,0,4.72,1c1.73.26,3.45.6,5.18,1a20.71,20.71,0,0,1,4.72,1.69,9.15,9.15,0,0,1,3.45,3,9,9,0,0,1,1.34,5.19,9.29,9.29,0,0,1-2,6,13.06,13.06,0,0,1-5.69,3.93A24.73,24.73,0,0,1,323.71,319.19Z"/><path d="M365.18,319.19A20.5,20.5,0,0,1,355,316.67a18.63,18.63,0,0,1-7.09-6.95,20.77,20.77,0,0,1,0-20.09,18.85,18.85,0,0,1,7.06-6.87,20.4,20.4,0,0,1,10.22-2.52,20.8,20.8,0,0,1,10.19,2.48,18.14,18.14,0,0,1,7.05,6.88,21.12,21.12,0,0,1,0,20.16,18.36,18.36,0,0,1-7.05,6.91A20.5,20.5,0,0,1,365.18,319.19Zm0-6.05a13.16,13.16,0,0,0,6.59-1.65,11.74,11.74,0,0,0,4.57-4.72,14.7,14.7,0,0,0,1.66-7.09,14.43,14.43,0,0,0-1.66-7.09,11.82,11.82,0,0,0-4.57-4.65,13.16,13.16,0,0,0-6.59-1.65,12.93,12.93,0,0,0-6.55,1.65,12.4,12.4,0,0,0-4.61,4.65,13.92,13.92,0,0,0-1.73,7.09,14.18,14.18,0,0,0,1.73,7.09,12.31,12.31,0,0,0,4.61,4.72A12.93,12.93,0,0,0,365.18,313.14Z"/><path d="M414.93,280.24a18.09,18.09,0,0,1,8.25,1.8,13,13,0,0,1,5.58,5.47,19.19,19.19,0,0,1,2,9.29v22h-6.91V297.59q0-5.55-2.7-8.35t-7.6-2.81a13.55,13.55,0,0,0-6.4,1.44,9.9,9.9,0,0,0-4.22,4.25,14.93,14.93,0,0,0-1.47,7v19.66h-6.91V280.6h6.62v10.29l-1.08-2.73a13.24,13.24,0,0,1,5.76-5.83A18.8,18.8,0,0,1,414.93,280.24Z"/><path d="M446.76,319.19a4.61,4.61,0,0,1-3.39-1.37,4.43,4.43,0,0,1-1.37-3.24,4.37,4.37,0,0,1,1.37-3.31,4.75,4.75,0,0,1,3.39-1.3,4.64,4.64,0,0,1,3.31,7.85A4.38,4.38,0,0,1,446.76,319.19ZM444,302.85l-1.3-34.49h8.14l-1.37,34.49Z"/><path d="M1076.35,380.66l-16.84-50.4h7.41l15.48,46.51h-3.74l16-46.51h6.63L1117,376.77h-3.6l15.7-46.51H1136l-16.85,50.4h-7.56l-14.69-43.13h2l-14.76,43.13Z"/><path d="M1157.86,381.09a22.25,22.25,0,0,1-10.77-2.52,18.22,18.22,0,0,1-7.2-6.91,19.72,19.72,0,0,1-2.55-10.08,20.19,20.19,0,0,1,2.48-10.08,17.92,17.92,0,0,1,6.84-6.87,20.72,20.72,0,0,1,19.62,0,17.34,17.34,0,0,1,6.66,6.87,21.29,21.29,0,0,1,2.41,10.34c0,.29,0,.62,0,1s-.06.75-.11,1.08h-32.47v-5h28.87l-2.81,1.73a12.9,12.9,0,0,0-1.51-6.56,11.58,11.58,0,0,0-4.36-4.5,13.55,13.55,0,0,0-12.85,0,11.42,11.42,0,0,0-4.39,4.54,13.66,13.66,0,0,0-1.59,6.66v1.15a13.12,13.12,0,0,0,1.77,6.81,12.06,12.06,0,0,0,4.93,4.64,15.52,15.52,0,0,0,7.27,1.65,15.87,15.87,0,0,0,6.16-1.15,13.41,13.41,0,0,0,4.86-3.45l3.81,4.46a16.63,16.63,0,0,1-6.44,4.61A22.37,22.37,0,0,1,1157.86,381.09Z"/><path d="M1184.93,380.66V327.24h6.91v53.42Z"/><path d="M1221.65,381.09a21.22,21.22,0,0,1-10.41-2.52,18.58,18.58,0,0,1-7.16-6.91,20.91,20.91,0,0,1,0-20.16,18.27,18.27,0,0,1,7.16-6.87,21.42,21.42,0,0,1,10.41-2.49,20.37,20.37,0,0,1,9.25,2.05,14.58,14.58,0,0,1,6.3,6.09l-5.26,3.38a11.7,11.7,0,0,0-4.57-4.14,12.88,12.88,0,0,0-5.79-1.33,13.5,13.5,0,0,0-6.7,1.65,12.29,12.29,0,0,0-4.68,4.65,13.92,13.92,0,0,0-1.73,7.09,14.15,14.15,0,0,0,1.73,7.13,12.1,12.1,0,0,0,4.68,4.68,13.5,13.5,0,0,0,6.7,1.65,12.88,12.88,0,0,0,5.79-1.33,11.55,11.55,0,0,0,4.57-4.14l5.26,3.31a15.1,15.1,0,0,1-6.3,6.09A19.65,19.65,0,0,1,1221.65,381.09Z"/><path d="M1261.9,381.09a20.48,20.48,0,0,1-10.19-2.52,18.61,18.61,0,0,1-7.09-6.94,19.52,19.52,0,0,1-2.6-10.05,19.23,19.23,0,0,1,2.6-10,18.85,18.85,0,0,1,7.05-6.88,20.47,20.47,0,0,1,10.23-2.52,20.73,20.73,0,0,1,10.19,2.49,18.12,18.12,0,0,1,7.05,6.87,21.12,21.12,0,0,1,0,20.16,18.43,18.43,0,0,1-7.05,6.91A20.53,20.53,0,0,1,1261.9,381.09Zm0-6a13.09,13.09,0,0,0,6.58-1.65,11.7,11.7,0,0,0,4.58-4.72,14.7,14.7,0,0,0,1.65-7.09,14.43,14.43,0,0,0-1.65-7.09,11.91,11.91,0,0,0-4.58-4.65,13.09,13.09,0,0,0-6.58-1.65,12.9,12.9,0,0,0-6.55,1.65,12.47,12.47,0,0,0-4.61,4.65,13.92,13.92,0,0,0-1.73,7.09,14.18,14.18,0,0,0,1.73,7.09,12.24,12.24,0,0,0,4.61,4.72A12.9,12.9,0,0,0,1261.9,375Z"/><path d="M1339,342.14a17.64,17.64,0,0,1,8.13,1.8,12.71,12.71,0,0,1,5.51,5.47,19.46,19.46,0,0,1,2,9.29v22h-6.91V359.49c0-3.69-.86-6.48-2.59-8.35a9.41,9.41,0,0,0-7.27-2.81,12.25,12.25,0,0,0-6,1.44,9.69,9.69,0,0,0-4,4.25,15.61,15.61,0,0,0-1.4,7v19.66h-6.91V359.49c0-3.69-.86-6.48-2.56-8.35s-4.14-2.81-7.31-2.81a12.07,12.07,0,0,0-6,1.44,9.89,9.89,0,0,0-4,4.25,15.19,15.19,0,0,0-1.44,7v19.66h-6.91V342.5h6.63v10.15l-1.08-2.59a13,13,0,0,1,5.54-5.83,17.6,17.6,0,0,1,8.71-2.09,16.32,16.32,0,0,1,9.43,2.7,12.83,12.83,0,0,1,5.19,8.17l-2.81-1.15a14.36,14.36,0,0,1,6-7.06A18.86,18.86,0,0,1,1339,342.14Z"/><path d="M1384.37,381.09a22.25,22.25,0,0,1-10.77-2.52,18.22,18.22,0,0,1-7.2-6.91,19.72,19.72,0,0,1-2.55-10.08,20.19,20.19,0,0,1,2.48-10.08,17.92,17.92,0,0,1,6.84-6.87,20.72,20.72,0,0,1,19.62,0,17.34,17.34,0,0,1,6.66,6.87,21.29,21.29,0,0,1,2.41,10.34c0,.29,0,.62,0,1s-.06.75-.11,1.08h-32.47v-5h28.87l-2.81,1.73a12.9,12.9,0,0,0-1.51-6.56,11.58,11.58,0,0,0-4.36-4.5,13.55,13.55,0,0,0-12.85,0,11.49,11.49,0,0,0-4.39,4.54,13.66,13.66,0,0,0-1.58,6.66v1.15a13.11,13.11,0,0,0,1.76,6.81,12.13,12.13,0,0,0,4.93,4.64,15.52,15.52,0,0,0,7.27,1.65,15.87,15.87,0,0,0,6.16-1.15,13.41,13.41,0,0,0,4.86-3.45l3.82,4.46a16.74,16.74,0,0,1-6.45,4.61A22.33,22.33,0,0,1,1384.37,381.09Z"/><path d="M1127.51,434.59V428.9h24.34v5.69Zm18.58,32.9q-5.76,0-8.93-3.09t-3.17-8.86v-35h6.91v34.7a6.73,6.73,0,0,0,1.55,4.76,5.78,5.78,0,0,0,4.43,1.65,8.15,8.15,0,0,0,5.4-1.8l2.16,5a10.26,10.26,0,0,1-3.78,2A16.17,16.17,0,0,1,1146.09,467.49Z"/><path d="M1177.84,467.49a20.48,20.48,0,0,1-10.19-2.52,18.61,18.61,0,0,1-7.09-6.94,19.52,19.52,0,0,1-2.59-10,19.22,19.22,0,0,1,2.59-10,18.85,18.85,0,0,1,7-6.88,22,22,0,0,1,20.41,0,18.08,18.08,0,0,1,7.06,6.87,21.13,21.13,0,0,1,0,20.16A18.38,18.38,0,0,1,1188,465,20.46,20.46,0,0,1,1177.84,467.49Zm0-6a13.17,13.17,0,0,0,6.59-1.66,11.74,11.74,0,0,0,4.57-4.72,14.7,14.7,0,0,0,1.65-7.09,14.45,14.45,0,0,0-1.65-7.09,11.86,11.86,0,0,0-4.57-4.64,13.06,13.06,0,0,0-6.59-1.66,12.81,12.81,0,0,0-6.55,1.66,12.3,12.3,0,0,0-4.61,4.64A13.85,13.85,0,0,0,1165,448a14.08,14.08,0,0,0,1.73,7.09,12.17,12.17,0,0,0,4.61,4.72A12.91,12.91,0,0,0,1177.84,461.45Z"/><path d="M1274.32,428.54a17.64,17.64,0,0,1,8.13,1.8,12.81,12.81,0,0,1,5.51,5.47,19.46,19.46,0,0,1,2,9.29v22H1283V445.89c0-3.69-.86-6.48-2.59-8.35a9.42,9.42,0,0,0-7.27-2.81,12.25,12.25,0,0,0-6.05,1.44,9.69,9.69,0,0,0-4,4.25,15.62,15.62,0,0,0-1.4,7v19.65h-6.92V445.89c0-3.69-.85-6.48-2.55-8.35s-4.14-2.81-7.31-2.81a12.11,12.11,0,0,0-6,1.44,9.93,9.93,0,0,0-4,4.25,15.21,15.21,0,0,0-1.44,7v19.65h-6.91V428.9h6.62v10.15l-1.08-2.59a13,13,0,0,1,5.55-5.83,17.6,17.6,0,0,1,8.71-2.09,16.32,16.32,0,0,1,9.43,2.7,12.83,12.83,0,0,1,5.19,8.17l-2.81-1.15a14.29,14.29,0,0,1,6-7.05A18.78,18.78,0,0,1,1274.32,428.54Z"/><path d="M1303.62,481.46a16.17,16.17,0,0,1-5.33-.9,12.44,12.44,0,0,1-4.46-2.63l3-5.18a10.45,10.45,0,0,0,3.17,2.09,9.42,9.42,0,0,0,3.67.72,6.56,6.56,0,0,0,4.18-1.3,11.76,11.76,0,0,0,3.09-4.61l2.38-5.25.72-.87,15-34.63h6.77l-18.5,42a22.11,22.11,0,0,1-3.71,6.33,12,12,0,0,1-4.5,3.28A14.45,14.45,0,0,1,1303.62,481.46Zm9.07-13.17-17.42-39.39h7.2l14.83,34Z"/><path d="M1102.92,553.46l-14.18-38.16h6.55l12.6,34.56h-3.1l13.11-34.56h5.83l12.82,34.56h-3l12.89-34.56h6.19l-14.25,38.16h-6.63l-12-31.54h2l-12.16,31.54Z"/><path d="M1175.5,553.89a22.25,22.25,0,0,1-10.77-2.52,18.22,18.22,0,0,1-7.2-6.91,19.72,19.72,0,0,1-2.55-10.08,20.19,20.19,0,0,1,2.48-10.08,18,18,0,0,1,6.84-6.88,19.53,19.53,0,0,1,9.83-2.48,19.26,19.26,0,0,1,9.79,2.45,17.34,17.34,0,0,1,6.66,6.87A21.29,21.29,0,0,1,1193,534.6c0,.28,0,.62,0,1s-.06.75-.11,1.08h-32.47v-5h28.87l-2.81,1.73a12.9,12.9,0,0,0-1.51-6.56,11.58,11.58,0,0,0-4.36-4.5,13.55,13.55,0,0,0-12.85,0,11.42,11.42,0,0,0-4.39,4.54,13.66,13.66,0,0,0-1.58,6.66v1.15a13.05,13.05,0,0,0,1.76,6.8,12.08,12.08,0,0,0,4.93,4.65,15.52,15.52,0,0,0,7.27,1.65,15.87,15.87,0,0,0,6.16-1.15,13.41,13.41,0,0,0,4.86-3.45l3.82,4.46a16.74,16.74,0,0,1-6.45,4.61A22.33,22.33,0,0,1,1175.5,553.89Z"/><path d="M1202.57,553.46V500h6.91v25.41l-.72,8.86.43,8.86v10.29Zm20.23.43a17.81,17.81,0,0,1-8.82-2.19,15.5,15.5,0,0,1-6.19-6.52,23.09,23.09,0,0,1-2.27-10.8,22.48,22.48,0,0,1,2.34-10.8,15.69,15.69,0,0,1,6.27-6.48,17.65,17.65,0,0,1,8.67-2.16,19.82,19.82,0,0,1,9.94,2.45,18.08,18.08,0,0,1,6.84,6.8,21.92,21.92,0,0,1,0,20.41,18.07,18.07,0,0,1-6.84,6.85A19.82,19.82,0,0,1,1222.8,553.89Zm-.57-6a13.12,13.12,0,0,0,6.58-1.65,11.9,11.9,0,0,0,4.61-4.72,14.38,14.38,0,0,0,1.69-7.09,14.12,14.12,0,0,0-1.69-7.09,12.12,12.12,0,0,0-4.61-4.65,13.12,13.12,0,0,0-6.58-1.65,13,13,0,0,0-6.52,1.65,12.19,12.19,0,0,0-4.61,4.65,14.12,14.12,0,0,0-1.69,7.09,14.38,14.38,0,0,0,1.69,7.09,12,12,0,0,0,4.61,4.72A13,13,0,0,0,1222.23,547.84Z"/><path d="M1262.62,553.89a31.21,31.21,0,0,1-9-1.29,21.23,21.23,0,0,1-6.73-3.17l2.88-5.47a23.47,23.47,0,0,0,6,2.8,23.86,23.86,0,0,0,7.34,1.16c3.22,0,5.53-.46,7-1.37a4.31,4.31,0,0,0,2.12-3.82,3.38,3.38,0,0,0-1.29-2.81,9,9,0,0,0-3.42-1.51c-1.42-.33-3-.63-4.72-.9s-3.45-.6-5.18-1a20.4,20.4,0,0,1-4.75-1.72,9,9,0,0,1-3.46-3.1,9.56,9.56,0,0,1-1.3-5.29,9.8,9.8,0,0,1,2-6,12.32,12.32,0,0,1,5.5-4,23.21,23.21,0,0,1,8.46-1.4,33.33,33.33,0,0,1,7.6.9,18.71,18.71,0,0,1,6.3,2.56l-3,5.47a16.36,16.36,0,0,0-5.4-2.38,25.06,25.06,0,0,0-5.62-.65c-3,0-5.28.5-6.76,1.48a4.42,4.42,0,0,0-2.24,3.78,3.58,3.58,0,0,0,1.34,3,9.38,9.38,0,0,0,3.45,1.62,43,43,0,0,0,4.72,1c1.73.27,3.45.6,5.18,1a21.2,21.2,0,0,1,4.72,1.69,9.17,9.17,0,0,1,3.45,3,9,9,0,0,1,1.33,5.18,9.26,9.26,0,0,1-2,6,13,13,0,0,1-5.69,3.93A24.76,24.76,0,0,1,1262.62,553.89Z"/><path d="M1291.2,508a4.6,4.6,0,0,1-3.35-1.3,4.24,4.24,0,0,1-1.33-3.17,4.34,4.34,0,0,1,1.33-3.24,4.63,4.63,0,0,1,3.35-1.29,4.69,4.69,0,0,1,3.35,1.26,4.12,4.12,0,0,1,1.33,3.13,4.5,4.5,0,0,1-4.68,4.61Zm-3.46,45.5V515.3h6.92v38.16Z"/><path d="M1302.36,521V515.3h24.34V521Zm18.58,32.9q-5.76,0-8.93-3.09t-3.17-8.86V507h6.91v34.7a6.73,6.73,0,0,0,1.55,4.76,5.78,5.78,0,0,0,4.43,1.65,8.15,8.15,0,0,0,5.4-1.8l2.16,5a10.26,10.26,0,0,1-3.78,2A16.17,16.17,0,0,1,1320.94,553.89Z"/><path d="M1353.34,553.89a22.25,22.25,0,0,1-10.77-2.52,18.15,18.15,0,0,1-7.2-6.91,19.72,19.72,0,0,1-2.55-10.08,20.09,20.09,0,0,1,2.48-10.08,17.94,17.94,0,0,1,6.84-6.88,19.53,19.53,0,0,1,9.83-2.48,19.28,19.28,0,0,1,9.79,2.45,17.34,17.34,0,0,1,6.66,6.87,21.29,21.29,0,0,1,2.41,10.34c0,.28,0,.62,0,1s-.07.75-.11,1.08h-32.47v-5h28.87l-2.81,1.73a12.9,12.9,0,0,0-1.51-6.56,11.58,11.58,0,0,0-4.36-4.5,13.55,13.55,0,0,0-12.85,0,11.42,11.42,0,0,0-4.39,4.54,13.66,13.66,0,0,0-1.59,6.66v1.15a13.06,13.06,0,0,0,1.77,6.8,12,12,0,0,0,4.93,4.65,15.52,15.52,0,0,0,7.27,1.65,15.87,15.87,0,0,0,6.16-1.15,13.49,13.49,0,0,0,4.86-3.45l3.81,4.46a16.63,16.63,0,0,1-6.44,4.61A22.37,22.37,0,0,1,1353.34,553.89Z"/><path d="M1383.58,553.89a4.6,4.6,0,0,1-3.39-1.36,4.46,4.46,0,0,1-1.37-3.24,4.39,4.39,0,0,1,1.37-3.32,4.74,4.74,0,0,1,3.39-1.29,4.42,4.42,0,0,1,4.6,4.61,4.59,4.59,0,0,1-1.29,3.24A4.37,4.37,0,0,1,1383.58,553.89Zm-2.81-16.34-1.3-34.49h8.14l-1.37,34.49Z"/></g></g></svg>