<?xml version="1.0" standalone="no"?>
<!DOCTYPE svg PUBLIC "-//W3C//DTD SVG 20010904//EN"
 "http://www.w3.org/TR/2001/REC-SVG-20010904/DTD/svg10.dtd">
<svg version="1.0" xmlns="http://www.w3.org/2000/svg"
 width="772.000000pt" height="772.000000pt" viewBox="0 0 772.000000 772.000000"
 preserveAspectRatio="xMidYMid meet">
<metadata>
Created by potrace 1.14, written by Peter Selinger 2001-2017
</metadata>
<g transform="translate(0.000000,772.000000) scale(0.100000,-0.100000)"
fill="#000000" stroke="none">
<path d="M2 3863 l3 -2878 400 0 400 0 0 1300 0 1300 1148 3 1147 2 1 -152 c0
-84 1 -670 2 -1303 l2 -1150 390 -1 c215 0 395 2 401 4 9 2 12 340 13 1285 0
705 1 1289 1 1298 0 13 8 16 33 14 17 -2 32 -3 32 -4 0 -1 32 -4 70 -6 118 -7
269 -20 355 -29 127 -14 182 -49 315 -201 77 -88 139 -159 145 -165 3 -3 52
-59 110 -125 58 -66 114 -129 125 -141 11 -12 33 -37 49 -55 15 -19 44 -52 65
-74 33 -37 132 -150 191 -219 14 -16 34 -39 45 -50 11 -12 49 -55 84 -96 36
-41 70 -79 75 -85 6 -5 38 -41 71 -80 51 -60 99 -114 140 -159 6 -6 57 -65
115 -131 58 -66 112 -127 120 -135 9 -8 42 -46 75 -85 33 -38 67 -76 75 -85 8
-9 40 -45 70 -80 30 -35 60 -68 65 -74 28 -31 234 -264 251 -284 10 -13 33
-38 49 -56 17 -18 44 -48 60 -67 17 -19 46 -52 65 -74 l35 -40 465 -3 c449 -3
464 -3 449 15 -9 10 -26 29 -37 43 -11 14 -31 36 -42 50 -12 14 -41 47 -64 74
-22 27 -46 54 -51 60 -6 6 -33 38 -60 71 -28 33 -52 62 -55 65 -3 3 -43 50
-90 105 -46 55 -89 105 -95 111 -5 6 -26 30 -45 53 -19 24 -42 50 -51 60 -8 9
-51 59 -94 111 -44 52 -82 97 -85 100 -4 3 -42 48 -85 100 -44 52 -82 97 -85
100 -6 6 -171 199 -183 215 -4 6 -17 22 -30 36 -12 14 -47 54 -77 89 -30 35
-64 74 -75 86 -11 13 -30 36 -42 51 -13 15 -36 44 -53 63 -16 19 -35 42 -42
50 -41 47 -136 159 -153 179 -11 13 -65 76 -119 140 -54 64 -117 138 -140 165
-23 27 -50 59 -61 72 -12 12 -39 44 -60 69 -22 26 -48 57 -58 69 -10 11 -37
43 -60 71 -23 27 -49 56 -57 65 -8 9 -37 43 -65 75 -27 33 -52 62 -55 65 -3 3
-17 21 -32 40 -71 93 -181 190 -263 231 -25 12 -45 25 -45 29 0 4 23 22 51 40
56 36 140 117 234 224 33 38 65 74 70 80 6 6 62 70 125 141 63 72 117 132 120
135 3 3 34 39 70 80 74 85 114 130 150 169 14 15 50 56 80 91 30 35 67 77 81
92 15 16 53 59 85 95 70 79 129 147 166 188 15 17 36 41 48 55 12 14 38 43 58
65 20 22 66 74 102 115 36 41 72 81 80 90 8 9 42 47 75 84 32 37 70 80 83 94
13 15 41 47 63 72 22 25 58 65 80 90 23 25 60 67 83 93 22 27 52 61 66 76 28
30 149 166 181 202 79 92 116 134 130 148 9 9 49 54 90 101 40 47 79 91 86 98
19 19 16 34 -5 28 -9 -3 -44 -8 -77 -11 -61 -6 -110 -12 -155 -20 -14 -2 -54
-6 -90 -9 -36 -4 -74 -8 -85 -10 -27 -5 -131 -17 -180 -21 -22 -1 -60 -6 -85
-9 -90 -13 -116 -16 -175 -22 -33 -4 -71 -8 -85 -9 -14 -2 -32 -3 -41 -4 -9
-1 -27 -13 -40 -27 -13 -14 -37 -41 -54 -58 -16 -18 -55 -61 -85 -96 -30 -34
-64 -72 -75 -85 -11 -12 -47 -52 -80 -90 -33 -37 -65 -73 -72 -80 -7 -7 -43
-48 -80 -91 -62 -72 -96 -110 -161 -182 -12 -14 -40 -46 -61 -71 -22 -25 -54
-62 -71 -81 -18 -19 -55 -62 -83 -94 -56 -64 -74 -83 -127 -142 -19 -22 -62
-70 -95 -109 -33 -38 -71 -82 -85 -96 -14 -15 -47 -52 -75 -84 -27 -32 -55
-63 -60 -69 -6 -6 -39 -45 -75 -86 -36 -41 -69 -79 -75 -86 -75 -83 -147 -164
-165 -186 -11 -15 -33 -40 -48 -55 -26 -27 -55 -61 -227 -258 -122 -140 -213
-225 -239 -225 -8 0 -18 -4 -21 -10 -6 -10 -70 -29 -125 -37 -19 -3 -115 -6
-212 -6 l-178 -2 -1 25 c0 14 0 589 -1 1278 l0 1252 -404 0 -403 0 -1 -1272
c0 -699 -2 -1273 -4 -1276 -8 -7 -2277 -4 -2284 3 -4 4 -7 577 -7 1273 l0
1267 -403 3 -402 2 2 -2877z"/>
</g>
</svg>
