<?xml version="1.0" encoding="UTF-8"?>
<svg id="Layer_2" data-name="Layer 2" xmlns="http://www.w3.org/2000/svg" viewBox="0 0 1311.81 1184.48">
  <defs>
    <style>
      .cls-1, .cls-2, .cls-3, .cls-4 {
        fill: none;
      }

      .cls-5 {
        fill: #ffe67d;
      }

      .cls-6 {
        fill: #fedc4a;
      }

      .cls-7 {
        letter-spacing: 0em;
      }

      .cls-2 {
        stroke-width: 20px;
      }

      .cls-2, .cls-3, .cls-4 {
        stroke: #000;
        stroke-linecap: round;
        stroke-linejoin: round;
      }

      .cls-3 {
        stroke-width: 2px;
      }

      .cls-8 {
        fill-rule: evenodd;
      }

      .cls-9 {
        font-family: MontserratRoman-Light, Montserrat;
        font-size: 48px;
        font-variation-settings: 'wght' 300;
        font-weight: 300;
      }

      .cls-4 {
        stroke-width: 3px;
      }
    </style>
  </defs>
  <g id="Layer_1-2" data-name="Layer 1">
    <g id="Page-1">
      <g id="Dribbble-Light-Preview">
        <g id="icons">
          <path id="python-_127_" data-name="python-[#127]" class="cls-8" d="M854.95,241.52c-2.44,0-4.42-1.99-4.42-4.44s1.98-4.44,4.42-4.44,4.42,1.98,4.42,4.44-1.98,4.44-4.42,4.44m-13.54,7.81c25.73,0,24.13-11.22,24.13-11.22l-.03-11.62h-24.55v-3.49h34.3s16.46,1.88,16.46-24.22-14.37-25.18-14.37-25.18h-8.58v12.11s.46,14.44-14.14,14.44h-24.35s-13.68-.22-13.68,13.3v22.34s-2.08,13.52,24.81,13.52m-14.26-93.53c2.44,0,4.41,1.99,4.41,4.44s-1.97,4.44-4.41,4.44-4.42-1.98-4.42-4.44,1.98-4.44,4.42-4.44m13.54-7.81c-25.73,0-24.12,11.22-24.12,11.22l.03,11.62h24.55v3.49h-34.31s-16.46-1.88-16.46,24.22,14.37,25.18,14.37,25.18h8.57v-12.11s-.46-14.44,14.14-14.44h24.35s13.68,.22,13.68-13.3v-22.34s2.08-13.52-24.81-13.52"/>
        </g>
      </g>
    </g>
    <g id="Page-1-2" data-name="Page-1">
      <g id="Dribbble-Light-Preview-2" data-name="Dribbble-Light-Preview">
        <g id="icons-2" data-name="icons">
          <path id="javascript-_155_" data-name="javascript-[#155]" class="cls-8" d="M617.06,596.04c-8.39,0-13.81-4-16.46-9.23h0l7.36-4.26c1.94,3.16,4.45,5.49,8.91,5.49,3.74,0,6.13-1.87,6.13-4.45,0-3.88-5.18-5.4-8.84-6.97-6.52-2.77-10.85-6.26-10.85-13.62,0-6.77,5.16-11.94,13.23-11.94,5.74,0,9.87,2,12.84,7.23l-7.03,4.52c-1.55-2.77-3.23-3.87-5.81-3.87s-4.33,1.68-4.33,3.87c0,2.71,1.68,3.81,5.55,5.49,8.12,3.48,14.26,6.22,14.26,15.17,0,8.13-6.39,12.59-14.97,12.59h0Zm-20.81-13.62c0,9.36-5.76,14.31-13.77,14.31-7.23,0-11.56-2.77-13.69-7.57h-.12l7.35-5.14c1.42,2.51,2.7,4.3,5.79,4.3s4.83-1.5,4.83-6.02v-31.6h9.61v31.72Zm-52.88,21.16h96.15v-96.15h-96.15v96.15Z"/>
        </g>
      </g>
    </g>
    <g id="Layer_2-2" data-name="Layer 2">
      <g id="invisible_box" data-name="invisible box">
        <rect class="cls-1" x="779.73" y="498.58" width="113.85" height="113.85"/>
      </g>
      <g id="Q3_icons" data-name="Q3 icons">
        <g>
          <path d="M880.06,526.57l-39.37-22.3c-2.55-1.2-5.51-1.2-8.06,0l-39.37,22.3c-2.46,1.42-3.99,4.03-4.03,6.88v44.12c.04,2.84,1.57,5.46,4.03,6.88l10.44,5.93c2.73,1.61,5.85,2.43,9.01,2.37,7.35,0,11.62-4.51,11.62-12.1v-43.4c0-.65-.53-1.19-1.19-1.19h-4.98c-.65,0-1.19,.53-1.19,1.19v43.4c0,3.56-3.56,6.88-9.25,4.03l-10.91-6.17c-.3-.22-.47-.58-.47-.95v-44.12c.02-.44,.18-.86,.47-1.19l39.14-22.06h1.42l39.14,22.06c.29,.33,.46,.75,.47,1.19v44.12c0,.37-.18,.72-.47,.95l-39.14,22.06c-.44,.25-.98,.25-1.42,0l-9.96-5.69c-.27-.24-.68-.24-.95,0l-5.93,2.61c-.71,.24-1.66,.47,.24,1.66l13.28,7.35c2.45,1.61,5.62,1.61,8.06,0l39.37-22.06c2.46-1.42,3.99-4.03,4.03-6.88v-44.12c-.04-2.84-1.57-5.46-4.03-6.88Z"/>
          <path d="M848.75,570.45c-10.44,0-12.57-2.37-13.52-7.35,0-.52-.42-.95-.95-.95h-5.22c-.52,0-.95,.42-.95,.95,0,6.4,3.56,14.23,20.63,14.23,12.33,0,19.45-4.74,19.45-13.05s-5.69-10.67-17.79-12.1c-12.1-1.42-13.28-2.37-13.28-5.22s.95-5.22,9.96-5.22,11.15,1.66,12.33,6.88c.11,.56,.61,.96,1.19,.95h4.98l.95-.47c.17-.19,.26-.45,.24-.71-.71-9.25-7.12-13.52-19.69-13.52s-17.79,4.74-17.79,12.33,6.64,10.67,17.31,11.86,13.99,2.85,13.99,5.46-3.56,5.93-11.86,5.93Z"/>
        </g>
      </g>
    </g>
    <g id="Icons1">
      <g id="react">
        <circle cx="720.6" cy="600.09" r="10.81"/>
        <path class="cls-8" d="M721.39,577.31c18.42,.13,38.53,1.47,52.33,13.77,.41,.36,.8,.74,1.18,1.13,3.26,3.32,4.96,8.68,2.33,13.08-5.39,9.05-17.45,13-29.12,15.43-17.46,3.63-35.71,3.66-53.16,.46-10.04-1.84-20.31-5.07-27.45-11.83-2.78-2.63-5.15-6.09-4.78-9.94,.6-6.23,6.58-10.23,11.61-12.94,13.97-7.52,31-9.2,47.06-9.17h0Zm-1.34,2.83c-17.43,.12-36.3,1.23-49.76,12.38-.47,.39-.92,.8-1.36,1.22-.28,.28-.56,.56-.82,.86-2.36,2.65-3.18,6.92-.95,10.11,2.24,3.21,5.65,5.52,9.16,7.41,13.12,7.06,28.63,8.31,43.75,8.36,15.31,.06,31.09-1.34,44.61-8.33,5.39-2.79,11.45-6.88,11.23-12.15-.2-4.84-4.91-7.82-8.44-9.96-.96-.58-1.94-1.11-2.93-1.61-13.42-6.73-29.15-8.32-44.49-8.28h0Z"/>
        <path class="cls-8" d="M745,548.8c6.74,.17,10.23,8.27,10.69,14.26,.09,1.19,.13,2.38,.11,3.58-.01,1.29-.08,2.59-.2,3.88-1.42,15.96-8.71,31.15-17.29,45.18-8.39,13.73-18.62,27.41-32.54,33.77-4.6,2.1-10.08,3.4-14.15,1.05-5.58-3.22-6.19-10.74-6.09-16.45,.03-1.4,.12-2.8,.26-4.2,2.15-20.66,12.62-40.23,25.72-57.08,7.64-9.84,16.74-19.59,28.07-23.13,1.78-.56,3.2-.9,5.41-.87h0Zm-.32,2.83c-7.91,.13-15.02,5.99-21.31,12.08-16.54,16.02-28.73,37.32-33.63,59.66-.38,1.73-.7,3.47-.93,5.23-.18,1.36-.31,2.72-.38,4.1-.06,1.09-.07,2.18-.04,3.28,.02,.85,.08,1.71,.17,2.56,.07,.65,.16,1.3,.28,1.94,.09,.48,.19,.95,.31,1.42,.1,.38,.21,.76,.34,1.14,.99,2.98,3.53,5.82,6.95,5.91,7.97,.22,15.47-5.59,21.95-11.9,11.38-11.08,19.87-25,26.49-39.63,5.35-11.81,10.24-24.66,7.51-37.66-.1-.49-.22-.98-.36-1.46-.11-.39-.24-.78-.38-1.17-1.06-2.89-3.56-5.48-6.96-5.47h0Z"/>
        <path class="cls-8" d="M696.73,548.91c8.6,.17,16.33,6,23.18,12.54,12.51,11.93,21.75,27.1,28.75,43.07,5.42,12.37,10.42,26.26,5.98,39.32-1.4,4.11-4.93,7.88-9.65,7.98-8.64,.17-16.65-6.11-23.6-12.87-17.44-16.97-30.38-39.38-34.82-63.15-.32-1.7-.57-3.41-.75-5.13-.14-1.4-.23-2.82-.26-4.23-.02-1.14,0-2.28,.08-3.41,.05-.76,.13-1.51,.23-2.26,.1-.7,.22-1.41,.38-2.1,.1-.46,.22-.92,.35-1.37,1.3-4.45,4.68-8.41,10.1-8.38h0Zm-.33,2.83c-5.04,.11-7.34,6.05-7.8,10.22-.09,.85-.15,1.72-.18,2.58-.03,1.1-.02,2.2,.04,3.3,.79,15.92,7.91,31.32,16.5,45.42,8.09,13.27,17.86,26.49,31.29,33.29,3.88,1.96,8.6,3.5,11.95,1.65,4.2-2.33,4.72-7.87,4.94-12,.06-1.12,.07-2.25,.03-3.38-.04-1.41-.15-2.83-.32-4.23-1.55-13.12-7.36-25.54-14.04-37.27-8.31-14.59-18.48-29.14-32.88-36.74-2.98-1.57-6.21-2.86-9.53-2.83h0Z"/>
      </g>
    </g>
    <path d="M1311.35,816.06c-.09-.52,.07-1.04-.07-1.55l-27.99-97.97c-1.72-6.01-7.21-10.15-13.46-10.15h-69.98v-69.98c0-54.01-43.91-97.97-97.89-97.97h-84.14c-53.97,0-97.89,43.95-97.89,97.97v69.98h-321.89c-6.25,0-11.74,4.14-13.46,10.15l-27.99,97.97c-.15,.52,.01,1.04-.07,1.56-.13,.77-.46,1.47-.46,2.28v307.9c0,7.73,6.26,14,14,14h55.98v44.25h27.99v-44.25h559.81v44.25h27.99v-44.25h55.98c7.73,0,14-6.26,14-14v-307.9c0-.81-.33-1.51-.46-2.28Zm-363.41-179.66c0-38.58,31.35-69.98,69.89-69.98h84.14c38.54,0,69.9,31.39,69.9,69.98v69.98h-223.92v-69.98h0Zm-339.33,97.97h650.67l19.98,69.98H588.62l19.98-69.98Zm675.22,377.87H584.06v-279.91h699.77v279.91h0Z"/>
    <path id="path3796" class="cls-2" d="M823.73,479.81l245.87,72.47,226.46-76.35"/>
    <path id="path3800" class="cls-2" d="M1071.02,697.69V414.49"/>
    <g>
      <path d="M793.14,867.32v209.93c0,7.73,6.26,14,14,14h251.91c7.74,0,14-6.26,14-13.99v-209.93c0-7.73-6.26-14-14-14h-251.91c-7.73,0-14,6.27-14,14Zm251.92,14v181.93h-223.92v-181.93h223.92Z"/>
      <g id="Layer_5" data-name="Layer 5">
        <g>
          <path d="M974.17,1034.83s-10.23-17.58-12.06-20.73c2.09-.64,4.31-1.2,5.24-2.79,1.54-2.66-1.2-7.02-.48-9.87,.74-2.93,5.12-5.47,5.12-8.45s-4.53-6.3-5.27-9.21c-.72-2.85,2.01-7.22,.46-9.87-1.54-2.66-6.69-2.44-8.81-4.48-2.18-2.1-2.17-7.23-4.8-8.64-2.64-1.41-6.93,1.44-9.86,.77-2.9-.67-5.49-5.03-8.51-5.03s-7.96,4.95-8.72,5.13c-2.93,.68-7.22-2.16-9.86-.75-2.63,1.41-2.61,6.54-4.79,8.64-2.11,2.04-7.26,1.83-8.8,4.49-1.54,2.66,1.2,7.02,.48,9.87-.72,2.86-5.25,5.75-5.25,9.06,0,2.98,4.39,5.51,5.13,8.44,.73,2.85-2.01,7.21-.46,9.87,.84,1.45,2.75,2.04,4.66,2.61,.22,.07,.64,.32,.36,.73-1.3,2.25-11.8,20.36-11.8,20.36-.83,1.44-.16,2.68,1.51,2.75l8.14,.34c1.66,.07,3.75,1.28,4.64,2.69l4.34,6.89c.89,1.41,2.3,1.38,3.13-.06,0,0,12.15-20.98,12.16-20.99,.24-.28,.49-.23,.61-.13,1.33,1.13,3.18,2.26,4.73,2.26s2.92-1.06,4.31-2.25c.11-.1,.39-.29,.59,.12,0,0,12.14,20.87,12.14,20.87,.84,1.44,2.25,1.46,3.13,.05l4.33-6.9c.89-1.41,2.97-2.62,4.63-2.69l8.14-.35c1.66-.07,2.34-1.31,1.5-2.75Zm-25.53-18.87c-9,5.24-19.8,4.68-28.06-.53-12.09-7.74-16.07-23.77-8.8-36.31,7.35-12.69,23.51-17.17,36.32-10.19,.07,.04,.13,.07,.2,.11,.09,.05,.19,.11,.28,.16,3.95,2.28,7.38,5.58,9.83,9.8,7.5,12.89,3.11,29.47-9.77,36.97Z"/>
          <path d="M946.59,972.98s-.08-.04-.11-.06c-6.84-3.96-15.56-4.25-22.86,0-10.84,6.31-14.53,20.26-8.22,31.1,1.92,3.31,4.56,5.95,7.61,7.85,.26,.16,.52,.33,.79,.48,10.85,6.29,24.8,2.57,31.09-8.28,6.29-10.85,2.57-24.8-8.28-31.09Zm2.72,17.74l-3.8,3.7c-1.18,1.15-1.91,3.41-1.63,5.03l.9,5.23c.28,1.62-.68,2.32-2.14,1.55l-4.7-2.47c-1.46-.76-3.84-.76-5.29,0l-4.7,2.47c-1.46,.76-2.42,.07-2.14-1.55l.9-5.23c.28-1.62-.46-3.88-1.63-5.03l-3.8-3.7c-1.18-1.15-.81-2.28,.82-2.52l5.25-.76c1.63-.24,3.55-1.64,4.28-3.11l2.35-4.76c.73-1.47,1.92-1.47,2.65,0l2.35,4.76c.73,1.47,2.65,2.87,4.28,3.11l5.25,.76c1.63,.24,1.99,1.37,.82,2.52Z"/>
        </g>
      </g>
      <text class="cls-9" transform="translate(835.19 938.24)"><tspan x="0" y="0">Finan</tspan><tspan class="cls-7" x="135.41" y="0">c</tspan><tspan x="161.61" y="0">e</tspan></text>
    </g>
    <g>
      <rect y="227.11" width="68.81" height="32"/>
      <path d="M393.95,63.04c13.2,50.85,32.61,118.98,49.24,150.95h68.8V0h-133.56s2.33,10.2,6.26,26.3H127.31c3.93-16.09,6.26-26.3,6.26-26.3H0V213.99H68.81c16.63-31.97,36.04-100.1,49.24-150.95"/>
      <path d="M242,396.08H117.62l-52.86-123.72H0v217.88s24.28,19.45,68.81,0c44.52-19.45,44.52,15.56,89.05,0l-25.49-59.66h247.28l-25.49,59.66c44.52,15.56,44.52-19.45,89.05,0,44.52,19.45,68.8,0,68.8,0v-217.88h-64.76l-52.86,123.72h-128.38"/>
      <rect x="443.2" y="227.11" width="68.8" height="32"/>
    </g>
    <g>
      <path id="path3802" class="cls-2" d="M1234.98,263.32c.04,83.45-73.36,151.13-163.96,151.16s-164.07-67.58-164.11-151.02v-.14c-.04-83.45,73.36-151.13,163.96-151.16,90.59-.04,164.07,67.58,164.11,151.02v.14Z"/>
      <path id="path5748" d="M1157.06,226c0,4.82-3.91,8.73-8.73,8.73s-8.73-3.91-8.73-8.73,3.91-8.73,8.73-8.73,8.73,3.91,8.73,8.73Z"/>
      <path id="path5748-2" data-name="path5748" d="M1003.3,226c0,4.82-3.91,8.73-8.73,8.73s-8.73-3.91-8.73-8.73,3.91-8.73,8.73-8.73,8.73,3.91,8.73,8.73Z"/>
      <path class="cls-4" d="M1027.65,252.84c6.7,3.61,20.87,10.09,39.92,10.19,19.58,.11,34.15-6.57,40.87-10.19"/>
      <path class="cls-3" d="M1020.45,254.46c5.26-.33,8.75-2.98,10.47-7.97"/>
      <path class="cls-3" d="M1106.36,245.45c.33,5.26,2.98,8.75,7.97,10.47"/>
    </g>
    <g>
      <g>
        <path d="M857.62,445.57h-5.22v-152.75c0-10.68-8.69-19.36-19.36-19.36h-226.21c-10.68,0-19.36,8.69-19.36,19.36v152.75h-5.22c-2.55,0-4.61,2.06-4.61,4.61v9.84c0,7.97,6.48,14.45,14.45,14.45h255.72c7.97,0,14.45-6.48,14.45-14.45v-9.84c0-2.55-2.06-4.61-4.61-4.61Zm-260.94-152.75c0-5.59,4.55-10.14,10.14-10.14h226.21c5.59,0,10.14,4.55,10.14,10.14v152.75h-246.5v-152.75Zm256.33,167.2c0,2.88-2.34,5.22-5.22,5.22h-255.72c-2.88,0-5.22-2.34-5.22-5.22v-5.22h103.9c0,.1-.02,.2-.02,.31,0,2.55,2.06,4.61,4.61,4.61h49.18c2.55,0,4.61-2.06,4.61-4.61,0-.1,0-.21-.02-.31h103.9v5.22Z"/>
        <path d="M828.12,293.13h-216.38c-2.55,0-4.61,2.06-4.61,4.61v132.78c0,2.55,2.06,4.61,4.61,4.61h216.38c2.55,0,4.61-2.06,4.61-4.61v-132.78c0-2.55-2.06-4.61-4.61-4.61Zm-4.61,132.78h-207.16v-123.56h207.16v123.56Z"/>
      </g>
      <path d="M752.32,350.6c-.49,.38-9.2,5.29-9.2,16.19,0,12.62,11.08,17.08,11.41,17.19-.05,.27-1.76,6.11-5.84,12.06-3.64,5.24-7.44,10.46-13.22,10.46s-7.27-3.36-13.94-3.36-8.82,3.47-14.1,3.47-8.98-4.85-13.22-10.8c-4.91-6.99-8.88-17.84-8.88-28.15,0-16.53,10.75-25.29,21.32-25.29,5.62,0,10.3,3.69,13.83,3.69s8.59-3.91,14.99-3.91c2.42,0,11.13,.22,16.86,8.43h0Zm-19.89-15.43c2.64-3.14,4.51-7.49,4.51-11.84,0-.6-.05-1.22-.16-1.71-4.3,.16-9.42,2.86-12.5,6.44-2.42,2.75-4.68,7.11-4.68,11.52,0,.66,.11,1.33,.16,1.54,.27,.05,.71,.11,1.16,.11,3.86,0,8.71-2.58,11.52-6.06h0Z"/>
    </g>
    <path d="M613.03,154.1c-3.96,.04-7.89,.6-11.7,1.71l-.26,.09c-2.39-.42-4.82-.65-7.24-.7-5.01-.09-9.3,1.12-12.77,3.15-3.41-1.17-10.49-3.23-17.95-2.82-5.18,.28-10.86,1.86-15.07,6.3-4.18,4.43-6.39,11.29-5.93,20.64,.13,2.57,.86,6.76,2.09,12.21,1.21,5.44,2.92,11.8,5.06,17.62,2.14,5.8,4.47,11.02,8.12,14.57,1.82,1.77,4.34,3.28,7.31,3.15,2.08-.09,3.95-1,5.57-2.34,.79,1.04,1.64,1.49,2.4,1.91,.98,.53,1.91,.89,2.89,1.13,1.76,.45,4.76,1.03,8.27,.43,1.19-.2,2.45-.6,3.71-1.14,.05,1.39,.1,2.77,.15,4.16,.18,4.39,.3,8.45,1.61,12.02,.22,.58,.8,3.56,3.08,6.22,2.3,2.65,6.78,4.29,11.9,3.2,3.6-.76,8.19-2.15,11.24-6.5,3.02-4.28,4.38-10.43,4.64-20.41,.06-.55,.15-.99,.23-1.43l.71,.07h.09c3.84,.17,8.02-.38,11.52-2.01,3.08-1.43,5.42-2.87,7.13-5.44,.42-.63,.89-1.41,1.02-2.74,.13-1.31-.63-3.38-1.89-4.34-2.52-1.92-4.11-1.19-5.82-.83-1.67,.37-3.38,.56-5.09,.61,4.9-8.25,8.42-17.04,10.43-24.8,1.19-4.59,1.86-8.82,1.91-12.51,.07-3.7-.25-6.96-2.45-9.79-6.93-8.83-16.66-11.29-24.18-11.37h-.7v-.02Zm-.2,2.72c7.11-.07,16.21,1.92,22.74,10.27,1.48,1.87,1.91,4.61,1.86,7.99s-.68,7.41-1.82,11.84c-2.2,8.59-6.4,18.56-12.28,27.54,.2,.15,.43,.28,.66,.37,1.23,.51,4.03,.94,9.63-.2,1.41-.3,2.44-.5,3.52,.32,.53,.45,.81,1.11,.78,1.81-.06,.51-.25,1.01-.56,1.43-1.08,1.62-3.21,3.17-5.95,4.44-2.42,1.12-5.9,1.71-8.97,1.74-1.56,.02-2.98-.1-4.2-.48h-.06c-.47,4.48-1.54,13.36-2.24,17.41-.56,3.26-1.54,5.87-3.41,7.81-1.87,1.96-4.51,3.12-8.07,3.88-4.41,.95-7.61-.07-9.68-1.81s-3.02-4.06-3.58-5.47c-.39-.98-.6-2.24-.79-3.93-.2-1.69-.33-3.75-.43-6.08-.13-3.56-.18-7.13-.13-10.71-1.84,1.69-4.12,2.8-6.58,3.23-2.93,.5-5.53,0-7.09-.38-.76-.2-1.51-.48-2.21-.86-.73-.38-1.41-.81-1.87-1.68-.27-.5-.35-1.07-.23-1.62,.13-.56,.46-1.04,.91-1.41,.84-.68,1.96-1.06,3.63-1.41,3.05-.63,4.13-1.06,4.77-1.58,.55-.43,1.18-1.32,2.27-2.64,0-.05,0-.11-.02-.17-1.97-.06-3.9-.58-5.64-1.52-.63,.66-3.9,4.11-7.85,8.89-1.66,1.99-3.5,3.13-5.45,3.22-1.94,.08-3.7-.89-5.19-2.34-2.98-2.9-5.37-7.89-7.44-13.53s-3.75-11.92-4.96-17.25c-1.19-5.36-1.91-9.67-2.01-11.74-.45-8.83,1.63-14.78,5.17-18.55,3.55-3.77,8.41-5.17,13.15-5.45,8.5-.48,16.59,2.49,18.22,3.12,3.15-2.14,7.21-3.46,12.28-3.38,2.41,.04,4.79,.35,7.13,.93l.09-.05c1.03-.35,2.07-.66,3.13-.89,2.89-.68,5.83-1.03,8.78-1.08h0Zm.65,2.84h-.63c-2.42,.03-4.86,.32-7.23,.83,5.29,2.34,9.28,5.93,12.1,9.55,1.96,2.49,3.56,5.22,4.79,8.14,.48,1.13,.8,2.07,.96,2.8,.1,.37,.15,.68,.18,.99,0,.17,.02,.33-.07,.61,0,.02-.02,.05-.02,.07,.14,3.71-.79,6.23-.91,9.78-.08,2.57,.58,5.59,.75,8.89,.15,3.1-.23,6.5-2.24,9.84,.17,.2,.32,.4,.48,.61,5.32-8.39,9.17-17.65,11.21-25.56,1.09-4.26,1.67-8.12,1.72-11.17,.05-3.05-.51-5.27-1.24-6.2-5.7-7.28-13.41-9.14-19.86-9.18h0Zm-20.34,1.09c-5,.02-8.6,1.53-11.33,3.8-2.82,2.36-4.71,5.55-5.94,8.85-1.48,3.9-1.99,7.67-2.19,10.24l.07-.04c1.51-.84,3.5-1.71,5.64-2.19,2.12-.5,4.43-.65,6.5,.17,2.09,.79,3.8,2.7,4.43,5.57,2.99,13.83-.93,18.97-2.37,22.84-.55,1.41-1.03,2.84-1.41,4.29,.18-.04,.37-.09,.55-.1,1.03-.08,1.82,.25,2.29,.45,1.46,.61,2.45,1.87,3,3.31,.13,.38,.23,.78,.3,1.21,.05,.17,.09,.35,.09,.53-.17,5.29-.15,10.58,.05,15.86,.1,2.29,.25,4.29,.43,5.88,.18,1.58,.43,2.78,.6,3.2,.54,1.36,1.34,3.13,2.78,4.34,1.43,1.21,3.48,2.01,7.24,1.21,3.26-.71,5.27-1.68,6.61-3.07,1.35-1.41,2.14-3.35,2.65-6.31,.78-4.46,2.32-17.39,2.5-19.81-.08-1.84,.18-3.25,.78-4.33,.6-1.09,1.52-1.77,2.34-2.14,.39-.18,.78-.3,1.09-.4-.33-.46-.68-.93-1.03-1.37-1.16-1.41-2.12-2.98-2.84-4.66-.33-.7-.7-1.4-1.09-2.06-.56-1.01-1.27-2.29-2.02-3.73-1.49-2.85-3.12-6.33-3.96-9.71-.84-3.38-.96-6.88,1.2-9.33,1.91-2.19,5.27-3.1,10.29-2.58-.15-.45-.23-.83-.48-1.41-1.14-2.69-2.64-5.21-4.43-7.5-4.26-5.45-11.17-10.86-21.83-11.04h-.5Zm-28.18,.23c-.53,0-1.08,.02-1.61,.05-4.29,.25-8.34,1.49-11.24,4.56-2.9,3.08-4.8,8.11-4.39,16.44,.09,1.59,.76,6,1.94,11.25,1.18,5.26,2.85,11.44,4.86,16.91,2,5.45,4.43,10.21,6.75,12.46,1.16,1.11,2.17,1.58,3.08,1.54,.91-.05,2.02-.58,3.38-2.21,2.47-2.98,5.03-5.87,7.68-8.69-3.82-3.33-5.69-8.37-4.94-13.38,.43-3.13,.5-6.07,.43-8.39-.05-2.25-.2-3.74-.2-4.69v-.1l-.02-.03c0-4.89,.87-9.73,2.52-14.32,1.19-3.17,2.95-6.37,5.6-8.97-2.6-.86-7.23-2.15-12.23-2.4-.53-.04-1.08-.05-1.61-.05h0Zm52.61,22.41c-2.88,.05-4.49,.8-5.35,1.76-1.2,1.38-1.31,3.8-.56,6.78,.74,2.98,2.29,6.31,3.73,9.09,.71,1.39,1.41,2.64,1.97,3.64,.58,1.03,1,1.74,1.24,2.37,.23,.56,.5,1.06,.76,1.52,1.11-2.36,1.31-4.66,1.19-7.08-.15-2.98-.84-6.03-.73-9.12,.12-3.62,.83-5.97,.88-8.76-1.03-.13-2.09-.22-3.13-.22h0Zm-34.94,.5c-.88,0-1.76,.11-2.62,.32-1.71,.42-3.35,1.04-4.89,1.91-.51,.28-1.01,.6-1.47,.96l-.1,.08c.04,.63,.15,2.12,.2,4.34,.05,2.42,0,5.5-.46,8.83-1.03,7.26,4.24,13.26,10.43,13.28,.37-1.49,.96-3,1.56-4.59,1.72-4.64,5.1-8.02,2.25-21.25-.46-2.15-1.39-3.03-2.67-3.53-.71-.25-1.45-.37-2.22-.35h0Zm33.6,.86h.22c.26,.02,.53,.04,.76,.1,.22,.05,.42,.12,.58,.23,.17,.1,.28,.26,.32,.46v.04c0,.2-.05,.4-.15,.58-.13,.23-.28,.45-.46,.63-.43,.48-1.02,.8-1.64,.89-.61,.09-1.23-.08-1.74-.43-.2-.15-.4-.32-.55-.5-.15-.15-.23-.35-.27-.55-.01-.19,.04-.39,.17-.54,.15-.15,.32-.28,.5-.38,.41-.23,.96-.4,1.59-.48,.23-.03,.46-.05,.68-.06v.02Zm-33.19,.71c.22,0,.47,.02,.7,.05,.66,.1,1.23,.27,1.67,.53,.22,.1,.42,.27,.56,.45,.17,.2,.25,.45,.23,.71-.05,.25-.15,.48-.32,.66-.18,.22-.38,.4-.61,.55-.55,.4-1.23,.56-1.91,.48-.68-.11-1.31-.45-1.77-.96-.2-.22-.37-.45-.5-.7-.15-.23-.21-.5-.18-.76,.07-.45,.45-.7,.81-.83,.42-.14,.86-.18,1.31-.17v-.02Zm38.44,31.16h-.02c-.61,.23-1.12,.32-1.56,.52-.45,.17-.8,.5-1.01,.91-.28,.48-.5,1.35-.43,2.82,.18,.14,.4,.23,.63,.3,.71,.22,1.94,.37,3.3,.35,2.7-.04,6.03-.66,7.81-1.49,1.44-.66,2.8-1.56,3.99-2.6-5.92,1.21-9.25,.89-11.3,.05-.5-.22-.98-.5-1.41-.85h0Zm-34.08,.4h-.09c-.23,.02-.55,.1-1.19,.8-1.48,1.65-1.99,2.7-3.2,3.66-1.23,.98-2.8,1.49-5.97,2.14-.99,.2-1.58,.43-1.96,.61,.11,.1,.11,.14,.3,.22,.47,.27,1.06,.48,1.54,.61,1.36,.33,3.58,.73,5.92,.33,2.32-.4,4.74-1.51,6.81-4.41,.37-.5,.39-1.24,.1-2.04-.3-.78-.95-1.47-1.39-1.65-.28-.14-.58-.22-.88-.27h0Z"/>
    <path d="M781.45,157.76c-3.65,1.38-7.75-.18-9.56-3.63l-17.41-24.08-2.52-3.37-20.2,27.47c-1.7,3.31-5.6,4.84-9.09,3.57l26.03-34.92-24.21-31.55c3.59-1.29,7.59,.11,9.59,3.36l18.05,24.37,18.15-24.27c1.72-3.25,5.6-4.7,9.02-3.37l-9.4,12.47-12.73,16.57c-1.39,1.24-1.51,3.36-.27,4.75,.09,.1,.18,.19,.27,.27l24.24,32.36h.05Zm-121.11-35.39l2.12-10.47c5.82-20.71,29.56-29.32,45.89-16.5,9.56,7.51,11.95,18.15,11.48,30.14h-53.87c-.87,21.41,14.58,34.34,34.34,27.74,6.51-2.34,11.4-7.79,13.03-14.51,1.04-3.36,2.77-3.94,5.92-2.97-1.07,8.31-5.88,15.67-13.07,19.97-12.01,6.57-26.89,4.67-36.87-4.71-4.81-5.41-7.72-12.25-8.28-19.47,0-1.19-.4-2.3-.68-3.36-.02-1.95-.04-3.9-.04-5.85h.01Zm5.69-1.45h48.72c-.3-15.52-10.1-26.53-23.16-26.64-14.54-.2-24.95,10.57-25.59,26.57l.04,.07Z"/>
    <g>
      <polygon class="cls-6" points="344.67 229.14 360.9 201.03 333.21 185.05 333.21 151.93 300.09 151.93 284.11 124.24 256 140.47 227.89 124.24 211.91 151.93 178.79 151.93 178.79 185.05 151.1 201.03 167.33 229.14 151.1 257.25 178.79 273.23 178.79 306.35 211.91 306.35 227.89 334.04 256 317.81 284.11 334.04 300.09 306.35 333.21 306.35 333.21 273.23 360.9 257.25 344.67 229.14"/>
      <circle class="cls-5" cx="256" cy="227.9" r="76.74"/>
    </g>
  </g>
</svg>