<svg xmlns="http://www.w3.org/2000/svg" viewBox="0 0 1311.81 1184.48"><defs><style>.cls-1,.cls-2{fill:none;stroke:#000;stroke-linecap:round;stroke-linejoin:round;}.cls-1{stroke-width:20px;}.cls-2{stroke-width:4px;}</style></defs><g id="Layer_2" data-name="Layer 2"><g id="Layer_1-2" data-name="Layer 1"><path d="M1311.35,816.06c-.09-.52.07-1-.07-1.56l-28-98a14,14,0,0,0-13.46-10.15h-70v-70a98,98,0,0,0-97.89-98h-84.13a98,98,0,0,0-97.89,98v70H598.05a14,14,0,0,0-13.46,10.15l-28,98a11.56,11.56,0,0,0-.07,1.56,12.52,12.52,0,0,0-.46,2.27v307.9a14,14,0,0,0,14,14h56v44.25h28v-44.25h559.82v44.25h28v-44.25h56a14,14,0,0,0,14-14V818.33A11.72,11.72,0,0,0,1311.35,816.06ZM947.94,636.4a70,70,0,0,1,69.89-70H1102a70,70,0,0,1,69.9,70v70H947.94v-70Zm-339.34,98h650.67l20,70H588.62Zm675.23,377.87H584.06V832.33h699.76v279.91Z"/><path id="path3796" class="cls-1" d="M813.54,485.13l245.87,72.47,226.45-76.35"/><path id="path3800" class="cls-1" d="M1060.82,703V419.81"/><path id="path3802" class="cls-1" d="M1227.75,269.76c0,83.44-73.36,151.12-164,151.16s-164.07-67.58-164.11-151v-.14c-.05-83.45,73.36-151.13,164-151.17s164.07,67.58,164.11,151Z"/><path id="path5748" d="M1149.84,232.44a8.73,8.73,0,1,1-8.73-8.73A8.73,8.73,0,0,1,1149.84,232.44Z"/><path id="path5748-2" data-name="path5748" d="M991.11,232.44a8.73,8.73,0,1,1-8.73-8.73A8.73,8.73,0,0,1,991.11,232.44Z"/><path d="M546,371V580.89a14,14,0,0,0,14,14H811.86a14,14,0,0,0,14-14V371a14,14,0,0,0-14-14H559.94A14,14,0,0,0,546,371Zm251.91,14V566.89H573.94V385Z"/><g id="Layer_5" data-name="Layer 5"><path d="M727,538.47l-12.06-20.73c2.09-.64,4.31-1.2,5.23-2.8,1.54-2.66-1.2-7-.48-9.87s5.12-5.47,5.12-8.45-4.52-6.3-5.27-9.21,2-7.22.47-9.87-6.69-2.44-8.81-4.48-2.18-7.23-4.8-8.64-6.93,1.45-9.87.77-5.48-5-8.51-5-8,4.95-8.72,5.13c-2.93.68-7.23-2.17-9.86-.75s-2.61,6.54-4.79,8.64-7.26,1.84-8.8,4.5,1.2,7,.48,9.87-5.25,5.75-5.25,9.06c0,3,4.39,5.51,5.14,8.44s-2,7.21-.47,9.87c.84,1.45,2.75,2,4.66,2.61.22.07.64.31.36.73-1.31,2.25-11.8,20.36-11.8,20.36a1.68,1.68,0,0,0,1.5,2.75l8.14.34a6.5,6.5,0,0,1,4.64,2.68l4.34,6.9a1.69,1.69,0,0,0,3.14-.06l12.15-21c.25-.29.49-.23.61-.13,1.33,1.13,3.18,2.26,4.73,2.26s2.92-1.06,4.31-2.25c.12-.09.39-.29.59.12l12.15,20.88a1.68,1.68,0,0,0,3.13,0l4.33-6.9a6.5,6.5,0,0,1,4.63-2.7l8.14-.35A1.68,1.68,0,0,0,727,538.47ZM701.45,519.6a27,27,0,1,1-.54-47l.2.11.28.16a27,27,0,0,1,.06,46.77Z"/><path d="M699.39,476.62l-.12-.06a22.74,22.74,0,0,0-31.08,31.11,22.5,22.5,0,0,0,7.6,7.84c.26.17.52.33.79.48a22.75,22.75,0,1,0,22.81-39.37Zm2.71,17.75-3.8,3.7a6.36,6.36,0,0,0-1.63,5l.89,5.24c.28,1.62-.68,2.32-2.14,1.55l-4.69-2.47a6.42,6.42,0,0,0-5.29,0l-4.7,2.47c-1.46.77-2.42.07-2.14-1.55l.89-5.24a6.36,6.36,0,0,0-1.63-5l-3.8-3.7c-1.18-1.15-.81-2.28.82-2.52l5.25-.76a6.41,6.41,0,0,0,4.28-3.11l2.35-4.76c.73-1.47,1.92-1.47,2.64,0l2.35,4.76a6.43,6.43,0,0,0,4.28,3.11l5.26.76C702.91,492.09,703.28,493.22,702.1,494.37Z"/></g><path d="M596.29,441.88h-2.45v-33.6h22.47v2.21h-20Zm-.29-17h18.2v2.21H596Z"/><path d="M624.56,410.73a1.95,1.95,0,1,1,0-3.89,2,2,0,0,1,1.42.55,1.86,1.86,0,0,1,.55,1.37,2,2,0,0,1-.55,1.4A1.89,1.89,0,0,1,624.56,410.73Zm-1.2,31.15V416.83h2.4v25.05Z"/><path d="M648.13,416.64a11.56,11.56,0,0,1,5.35,1.17,8.28,8.28,0,0,1,3.55,3.55,12.35,12.35,0,0,1,1.28,5.88v14.64h-2.4V427.44c0-2.82-.72-5-2.14-6.44a7.93,7.93,0,0,0-6-2.2,10.29,10.29,0,0,0-5.08,1.2,8,8,0,0,0-3.29,3.35,11.14,11.14,0,0,0-1.13,5.19v13.34h-2.4V416.83h2.3v7l-.33-.77a9.56,9.56,0,0,1,3.79-4.68A11.67,11.67,0,0,1,648.13,416.64Z"/><path d="M675,442.08a12.05,12.05,0,0,1-4.82-.89,6.92,6.92,0,0,1-3.12-2.52,6.65,6.65,0,0,1-1.08-3.75,6.83,6.83,0,0,1,.89-3.48,6.41,6.41,0,0,1,2.95-2.54,12.87,12.87,0,0,1,5.52-1h9.21v1.87h-9.16c-2.6,0-4.41.48-5.45,1.44a4.95,4.95,0,0,0,.26,7.44,8.12,8.12,0,0,0,5.14,1.44,9.52,9.52,0,0,0,5.35-1.44,8.47,8.47,0,0,0,3.24-4.18l.67,1.63a8.64,8.64,0,0,1-3.43,4.35A11,11,0,0,1,675,442.08Zm9-.2v-5.71l-.1-.86V425.9a7,7,0,0,0-1.9-5.33,7.71,7.71,0,0,0-5.54-1.82,12.72,12.72,0,0,0-4.82.89,13,13,0,0,0-3.82,2.28l-1.2-1.73a13.29,13.29,0,0,1,4.51-2.62,16.49,16.49,0,0,1,5.52-.93q4.67,0,7.15,2.35c1.67,1.57,2.5,3.9,2.5,7v15.88Z"/><path d="M708.42,416.64a11.59,11.59,0,0,1,5.35,1.17,8.33,8.33,0,0,1,3.55,3.55,12.35,12.35,0,0,1,1.27,5.88v14.64h-2.4V427.44c0-2.82-.71-5-2.13-6.44a8,8,0,0,0-6-2.2A10.33,10.33,0,0,0,703,420a8,8,0,0,0-3.28,3.35,11,11,0,0,0-1.13,5.19v13.34h-2.4V416.83h2.3v7l-.33-.77a9.5,9.5,0,0,1,3.79-4.68A11.67,11.67,0,0,1,708.42,416.64Z"/><path d="M738.42,442.08a12.88,12.88,0,0,1-6.51-1.64,11.91,11.91,0,0,1-4.51-4.51,14,14,0,0,1,0-13.2,11.86,11.86,0,0,1,4.51-4.49,13.06,13.06,0,0,1,6.51-1.6,12.82,12.82,0,0,1,5.49,1.15,9.64,9.64,0,0,1,4,3.45l-1.78,1.3a8.1,8.1,0,0,0-3.36-2.83,11,11,0,0,0-9.62.41,9.45,9.45,0,0,0-3.65,3.69,12.31,12.31,0,0,0,0,11.09,9.48,9.48,0,0,0,3.65,3.7,11,11,0,0,0,9.62.4,8,8,0,0,0,3.36-2.83l1.78,1.3a9.56,9.56,0,0,1-4,3.45A12.83,12.83,0,0,1,738.42,442.08Z"/><path d="M764.87,442.08a13.41,13.41,0,0,1-6.7-1.64,11.76,11.76,0,0,1-4.56-4.51,12.89,12.89,0,0,1-1.66-6.58,13.51,13.51,0,0,1,1.56-6.59A11.62,11.62,0,0,1,764,416.64a11.88,11.88,0,0,1,6.12,1.58,11.36,11.36,0,0,1,4.28,4.44,13.64,13.64,0,0,1,1.56,6.6,1.8,1.8,0,0,1,0,.31,2.06,2.06,0,0,0,0,.36H753.73v-1.87h20.83l-1,.91a10.49,10.49,0,0,0-1.22-5.25,9.24,9.24,0,0,0-8.43-5,9.39,9.39,0,0,0-5,1.32,9.24,9.24,0,0,0-3.44,3.65,11.06,11.06,0,0,0-1.24,5.3v.43a10.75,10.75,0,0,0,1.36,5.45,9.65,9.65,0,0,0,3.77,3.7,11.15,11.15,0,0,0,5.47,1.32,11.55,11.55,0,0,0,4.49-.87,8.73,8.73,0,0,0,3.53-2.64l1.39,1.59a10.28,10.28,0,0,1-4.1,3A13.72,13.72,0,0,1,764.87,442.08Z"/><rect y="227.11" width="68.81" height="32"/><path d="M394,63c13.21,50.85,32.61,119,49.25,151H512V0H378.44s2.33,10.2,6.26,26.3H127.31C131.24,10.2,133.56,0,133.56,0H0V214H68.81c16.63-32,36-100.1,49.24-151"/><path d="M242,396.08H117.62L64.76,272.36H0V490.24s24.28,19.45,68.81,0,44.52,15.56,89,0l-25.49-59.66H379.64l-25.49,59.66c44.52,15.56,44.52-19.45,89,0s68.81,0,68.81,0V272.36H447.24L394.38,396.08H266"/><rect x="443.2" y="227.11" width="68.8" height="32"/><path d="M179.66,232.92l-.89-2.14v0a7.74,7.74,0,1,0-14.28,5.95l7.69,18.58a7.74,7.74,0,0,0,14.3-5.92l-.89-2.14,17.63-7.31c.18-.07.29-.22.45-.3A60,60,0,0,0,226.07,262c-.09.17-.23.29-.31.46l-7.3,17.63-2.15-.89a7.74,7.74,0,1,0-5.92,14.3l9.27,3.84h.05L229,301.2l.12,0a7.73,7.73,0,0,0,5.8-14.34l-2.15-.89,7.31-17.63c.07-.17,0-.36.1-.54a59.86,59.86,0,0,0,31.68,0c.06.18,0,.36.1.53L279.25,286l-2.14.89A7.74,7.74,0,0,0,283,301.2l9.27-3.84h0a0,0,0,0,1,0,0l9.28-3.84a7.74,7.74,0,1,0-5.92-14.3l-2.15.89-7.3-17.63c-.07-.17-.22-.28-.3-.45a59.88,59.88,0,0,0,22.39-22.4c.17.08.28.23.46.3l17.63,7.31-.89,2.14a7.74,7.74,0,0,0,14.3,5.92l3.84-9.27v0h0l3.84-9.28,0,0a7.74,7.74,0,0,0-14.31-5.88l-.89,2.14-17.63-7.3a5.17,5.17,0,0,0-.54-.11h0a60,60,0,0,0,0-31.67c.17-.06.35,0,.53-.11l17.63-7.3.89,2.14v0a7.74,7.74,0,1,0,14.28-5.95l-3.84-9.28h0l-3.84-9.29a7.74,7.74,0,1,0-14.3,5.92l.89,2.14-17.63,7.3c-.18.08-.29.23-.45.31A60,60,0,0,0,286,157.36a4.71,4.71,0,0,0,.29-.48l7.31-17.62,2.14.88h0a7.73,7.73,0,0,0,5.9-14.3L283,118.15h0a7.74,7.74,0,1,0-5.89,14.31l2.14.88L271.94,151c-.07.17,0,.36-.1.54a60,60,0,0,0-31.68,0c-.06-.18,0-.36-.1-.53l-7.31-17.63,2.15-.89a7.74,7.74,0,0,0-5.92-14.3l-18.59,7.7h0a7.73,7.73,0,0,0,5.94,14.28l2.14-.88,7.31,17.62a5.3,5.3,0,0,0,.28.47,60,60,0,0,0-22.37,22.39c-.17-.08-.28-.23-.46-.31l-17.63-7.3.89-2.14a7.74,7.74,0,0,0-14.3-5.92l-7.69,18.58v0a7.73,7.73,0,1,0,14.3,5.89l.89-2.14,17.63,7.3c.18.07.37.05.54.11a59.93,59.93,0,0,0,0,31.67c-.18.06-.36,0-.54.11Z"/><path d="M167.73,365.19a18.53,18.53,0,0,1-6.93-1.27,16.62,16.62,0,0,1-5.55-3.58,16.29,16.29,0,0,1-3.64-5.4,18.38,18.38,0,0,1,0-13.58,15.83,15.83,0,0,1,3.67-5.4,16.89,16.89,0,0,1,5.54-3.58,18.35,18.35,0,0,1,6.91-1.27,18.85,18.85,0,0,1,6.65,1.15,13.79,13.79,0,0,1,5.31,3.51l-1.54,1.58a13,13,0,0,0-4.78-3.05,16.4,16.4,0,0,0-5.54-.94,15.9,15.9,0,0,0-6,1.11,14.24,14.24,0,0,0-8,7.82,15.73,15.73,0,0,0,0,11.71,14.22,14.22,0,0,0,8,7.83,16.1,16.1,0,0,0,6,1.1,16.4,16.4,0,0,0,5.54-.93,12.91,12.91,0,0,0,4.78-3.1l1.54,1.58a14,14,0,0,1-5.31,3.53A18.42,18.42,0,0,1,167.73,365.19Z"/><path d="M201.43,365.19a18.54,18.54,0,0,1-6.94-1.27,16.76,16.76,0,0,1-5.56-3.6,16.32,16.32,0,0,1-3.68-5.43,18.28,18.28,0,0,1,0-13.49,16.38,16.38,0,0,1,3.68-5.42,16.76,16.76,0,0,1,5.56-3.6,19.6,19.6,0,0,1,13.88,0,16.68,16.68,0,0,1,5.54,3.58,16.42,16.42,0,0,1,3.67,5.4,18.12,18.12,0,0,1,0,13.58,16.51,16.51,0,0,1-9.21,9A18.54,18.54,0,0,1,201.43,365.19Zm0-2.26a15.86,15.86,0,0,0,5.95-1.1,14.12,14.12,0,0,0,4.75-3.12,14.43,14.43,0,0,0,3.15-4.71,15.79,15.79,0,0,0,0-11.73,14.41,14.41,0,0,0-3.15-4.68,14,14,0,0,0-4.75-3.12,16.5,16.5,0,0,0-11.9,0,14.29,14.29,0,0,0-4.78,3.12,14.46,14.46,0,0,0-3.17,4.68,15.92,15.92,0,0,0,0,11.73,14.32,14.32,0,0,0,7.95,7.83A15.86,15.86,0,0,0,201.43,362.93Z"/><path d="M235.8,365l-15-33.6h2.69l14.3,32.11h-1.48l14.35-32.11h2.54l-15,33.6Z"/><path d="M258.65,365v-33.6h2.44V365Z"/><path d="M272.81,365v-33.6H286.1a19.54,19.54,0,0,1,9.36,2.16,15.71,15.71,0,0,1,6.27,5.95,18,18,0,0,1,0,17.38,15.77,15.77,0,0,1-6.27,6A19.54,19.54,0,0,1,286.1,365Zm2.44-2.21h10.66a17.27,17.27,0,0,0,8.26-1.87,13.55,13.55,0,0,0,5.42-5.16,15.84,15.84,0,0,0,0-15.12,13.55,13.55,0,0,0-5.42-5.16,17.27,17.27,0,0,0-8.26-1.87H275.25Z"/><path d="M310,353.14V351h12.34v2.16Z"/><path d="M333.19,365V332.4l1.1,1.16H325v-2.21h10.66V365Z"/><path d="M354.26,331.11a13.05,13.05,0,0,1,7.42,2,12.39,12.39,0,0,1,4.53,5.79,23.83,23.83,0,0,1,1.54,9,21.7,21.7,0,0,1-1.87,9.5,13.08,13.08,0,0,1-5.24,5.78,15.28,15.28,0,0,1-7.82,1.95,21.54,21.54,0,0,1-4.1-.38,10.8,10.8,0,0,1-3.53-1.35l1-2a9,9,0,0,0,3,1.18,17.58,17.58,0,0,0,3.6.36,11.76,11.76,0,0,0,9.07-3.67q3.41-3.67,3.41-11c0-.77-.05-1.71-.14-2.83a17,17,0,0,0-.63-3.31l.87.24a9.22,9.22,0,0,1-1.88,4.72,10,10,0,0,1-3.91,3,12.8,12.8,0,0,1-5.3,1.06,13.4,13.4,0,0,1-5.88-1.22,9.46,9.46,0,0,1-3.94-3.48,9.78,9.78,0,0,1-1.41-5.28,9.68,9.68,0,0,1,1.46-5.36,9.78,9.78,0,0,1,4-3.52A12.68,12.68,0,0,1,354.26,331.11Zm.1,2.11a10.27,10.27,0,0,0-4.61,1,7.69,7.69,0,0,0-3.1,2.76,7.77,7.77,0,0,0-1.13,4.23A7.31,7.31,0,0,0,348,347a9.73,9.73,0,0,0,6.67,2.16,10.62,10.62,0,0,0,4.85-1.06,8.05,8.05,0,0,0,3.29-2.88,7.38,7.38,0,0,0,1.18-4.08,7.08,7.08,0,0,0-1.11-3.77,8.36,8.36,0,0,0-3.21-2.95A10.91,10.91,0,0,0,354.36,333.22Z"/><line class="cls-2" x1="1020.43" y1="272.36" x2="1101.22" y2="259.27"/><path d="M68.31,734.36h-9v-63h9Zm37-28.08H67.41v-7.83H105.3Zm-.81-34.92h9v63h-9Z"/><path d="M145.08,734.9a22.4,22.4,0,0,1-9.32-1.8,14.26,14.26,0,0,1-6.16-5,12.65,12.65,0,0,1-2.16-7.25,13.62,13.62,0,0,1,1.84-7,12.72,12.72,0,0,1,6-5q4.19-1.9,11.3-1.9h15.12v6.21H147c-4.32,0-7.23.73-8.73,2.16A7,7,0,0,0,136,720.5a6.71,6.71,0,0,0,2.79,5.63q2.79,2.11,7.74,2.11a16.35,16.35,0,0,0,8.5-2.16,12.26,12.26,0,0,0,5.27-6.3l1.71,6a13.43,13.43,0,0,1-6,6.7A21.67,21.67,0,0,1,145.08,734.9Zm15.66-.54V724.28l-.45-1.89V705.2c0-3.65-1.07-6.49-3.2-8.5s-5.32-3-9.58-3a25.25,25.25,0,0,0-8.28,1.39,21.52,21.52,0,0,0-6.84,3.73l-3.6-6.48a26,26,0,0,1,8.86-4.54,37.08,37.08,0,0,1,10.85-1.58q9.81,0,15.12,4.77t5.31,14.58v28.8Z"/><path d="M185,734.36v-47.7h8.28v13l-.81-3.24a14.69,14.69,0,0,1,6.66-7.56,23.45,23.45,0,0,1,11.52-2.61v8.37a7.7,7.7,0,0,0-1-.09h-.94c-4.63,0-8.28,1.39-11,4.14s-4,6.75-4,12v23.76Z"/><path d="M221.22,734.36v-47.7h8.28v13l-.81-3.24a14.69,14.69,0,0,1,6.66-7.56,23.45,23.45,0,0,1,11.52-2.61v8.37a7.7,7.7,0,0,0-1-.09h-.94c-4.63,0-8.28,1.39-11,4.14s-4,6.75-4,12v23.76Z"/><path d="M261.81,677.48a5.75,5.75,0,0,1-4.19-1.62,5.29,5.29,0,0,1-1.66-4,5.43,5.43,0,0,1,1.66-4,5.75,5.75,0,0,1,4.19-1.62,5.86,5.86,0,0,1,4.18,1.58,5.18,5.18,0,0,1,1.67,3.92,5.61,5.61,0,0,1-5.85,5.75Zm-4.32,56.88v-47.7h8.64v47.7Z"/><path d="M296.27,734.9A38.77,38.77,0,0,1,285,733.28a26.34,26.34,0,0,1-8.42-4l3.6-6.84a28.79,28.79,0,0,0,7.57,3.51,29.55,29.55,0,0,0,9.17,1.45c4,0,6.92-.58,8.69-1.71a5.39,5.39,0,0,0,2.66-4.78,4.2,4.2,0,0,0-1.63-3.51,11,11,0,0,0-4.27-1.88q-2.66-.63-5.89-1.13T290,713.17A25.47,25.47,0,0,1,284,711a11.18,11.18,0,0,1-4.33-3.87,11.92,11.92,0,0,1-1.62-6.62,12.25,12.25,0,0,1,2.43-7.56,15.48,15.48,0,0,1,6.89-5A28.78,28.78,0,0,1,298,686.21a41.69,41.69,0,0,1,9.5,1.13,23.55,23.55,0,0,1,7.87,3.19l-3.69,6.84a20.59,20.59,0,0,0-6.75-3,31,31,0,0,0-7-.8c-3.77,0-6.6.61-8.46,1.84a5.5,5.5,0,0,0-2.79,4.72,4.48,4.48,0,0,0,1.67,3.74,12,12,0,0,0,4.32,2,51.55,51.55,0,0,0,5.89,1.22q3.24.5,6.48,1.26a25.85,25.85,0,0,1,5.9,2.12,10.47,10.47,0,0,1,6,10.25,11.64,11.64,0,0,1-2.51,7.47,16.32,16.32,0,0,1-7.12,4.91A30.77,30.77,0,0,1,296.27,734.9Z"/><path d="M348.11,734.9a25.49,25.49,0,0,1-12.73-3.15,23.25,23.25,0,0,1-8.87-8.68,24.39,24.39,0,0,1-3.24-12.55A24.1,24.1,0,0,1,326.51,698a23.64,23.64,0,0,1,8.82-8.6,25.65,25.65,0,0,1,12.78-3.15,25.93,25.93,0,0,1,12.74,3.11,22.76,22.76,0,0,1,8.82,8.59,26.48,26.48,0,0,1,0,25.2,23,23,0,0,1-8.82,8.64A25.53,25.53,0,0,1,348.11,734.9Zm0-7.55a16.3,16.3,0,0,0,8.24-2.08,14.6,14.6,0,0,0,5.71-5.89,18.32,18.32,0,0,0,2.07-8.86,18,18,0,0,0-2.07-8.87,14.75,14.75,0,0,0-5.71-5.8,16.4,16.4,0,0,0-8.24-2.08,16.14,16.14,0,0,0-8.19,2.08,15.49,15.49,0,0,0-5.76,5.8,17.43,17.43,0,0,0-2.16,8.87,17.7,17.7,0,0,0,2.16,8.86,15.32,15.32,0,0,0,5.76,5.89A16,16,0,0,0,348.11,727.35Z"/><path d="M410.3,686.21a22.71,22.71,0,0,1,10.31,2.25,16.16,16.16,0,0,1,7,6.85,23.86,23.86,0,0,1,2.52,11.6v27.45h-8.64V707.9q0-6.92-3.37-10.44t-9.5-3.51a17.08,17.08,0,0,0-8,1.8,12.42,12.42,0,0,0-5.26,5.31,18.64,18.64,0,0,0-1.85,8.73v24.57h-8.64v-47.7h8.28v12.87l-1.35-3.42a16.67,16.67,0,0,1,7.2-7.29A23.73,23.73,0,0,1,410.3,686.21Z"/><path d="M5.31,842.36v-63H29.88A34.38,34.38,0,0,1,44,782a20.05,20.05,0,0,1,9,7.55,21.54,21.54,0,0,1,3.15,11.79A21.26,21.26,0,0,1,53,813.07a20.39,20.39,0,0,1-9,7.56,34,34,0,0,1-14.13,2.65H10.26l4.05-4.22v23.3Zm9-22.41-4.05-4.5H29.61q8.64,0,13.09-3.68t4.46-10.45c0-4.5-1.49-8-4.46-10.44s-7.33-3.69-13.09-3.69H10.26l4.05-4.5Z"/><path d="M67.32,842.36v-47.7H75.6v13l-.81-3.24a14.73,14.73,0,0,1,6.66-7.56A23.47,23.47,0,0,1,93,794.21v8.37a7.7,7.7,0,0,0-1-.09H91c-4.62,0-8.28,1.39-11,4.14S76,813.38,76,818.6v23.76Z"/><path d="M124.38,842.9a27.68,27.68,0,0,1-13.46-3.15,22.7,22.7,0,0,1-9-8.64,24.52,24.52,0,0,1-3.19-12.59,25.21,25.21,0,0,1,3.1-12.61,22.47,22.47,0,0,1,8.55-8.59,25.92,25.92,0,0,1,24.53-.05,21.66,21.66,0,0,1,8.32,8.6,26.59,26.59,0,0,1,3,12.91c0,.36,0,.78-.05,1.26s-.07.94-.13,1.35H105.48v-6.2h36.09l-3.51,2.16a16.08,16.08,0,0,0-1.89-8.2,14.51,14.51,0,0,0-5.45-5.62,16.9,16.9,0,0,0-16.06,0,14.27,14.27,0,0,0-5.49,5.67,17.17,17.17,0,0,0-2,8.32V819a16.4,16.4,0,0,0,2.2,8.51,15.15,15.15,0,0,0,6.17,5.8,19.22,19.22,0,0,0,9.09,2.08,19.84,19.84,0,0,0,7.69-1.45,16.63,16.63,0,0,0,6.08-4.32l4.77,5.58a20.7,20.7,0,0,1-8.06,5.76A27.82,27.82,0,0,1,124.38,842.9Z"/><path d="M156.06,821.39v-7.47h24.21v7.47Z"/><path d="M223.64,843.08a36,36,0,0,1-13.27-2.38A31.1,31.1,0,0,1,199.84,834a31.64,31.64,0,0,1-7-10.22,34.12,34.12,0,0,1,0-25.74,31.34,31.34,0,0,1,17.6-17,37.9,37.9,0,0,1,26.73.09,27.53,27.53,0,0,1,10.48,7.33l-5.85,5.67a23.37,23.37,0,0,0-8.1-5.62,25.14,25.14,0,0,0-9.63-1.85,26.7,26.7,0,0,0-9.85,1.8,23.81,23.81,0,0,0-7.88,5,22.75,22.75,0,0,0-5.17,7.7,26.22,26.22,0,0,0,0,19.35,22.71,22.71,0,0,0,5.17,7.69,23.5,23.5,0,0,0,7.88,5,26.3,26.3,0,0,0,9.85,1.8,25.13,25.13,0,0,0,9.63-1.84,22.85,22.85,0,0,0,8.1-5.71l5.85,5.67a28,28,0,0,1-10.48,7.37A35.3,35.3,0,0,1,223.64,843.08Z"/><path d="M277.74,842.9A25.5,25.5,0,0,1,265,839.75a23.16,23.16,0,0,1-8.86-8.68,24.4,24.4,0,0,1-3.25-12.55A24.1,24.1,0,0,1,256.14,806a23.49,23.49,0,0,1,8.82-8.6,25.6,25.6,0,0,1,12.78-3.15,25.92,25.92,0,0,1,12.73,3.11,22.76,22.76,0,0,1,8.82,8.59,26.41,26.41,0,0,1,0,25.2,23,23,0,0,1-8.82,8.64A25.52,25.52,0,0,1,277.74,842.9Zm0-7.55a16.29,16.29,0,0,0,8.23-2.08,14.6,14.6,0,0,0,5.71-5.89,18.32,18.32,0,0,0,2.07-8.86,18,18,0,0,0-2.07-8.87,14.75,14.75,0,0,0-5.71-5.8,16.39,16.39,0,0,0-8.23-2.08,16.17,16.17,0,0,0-8.2,2.08,15.47,15.47,0,0,0-5.75,5.8,17.43,17.43,0,0,0-2.17,8.87,17.71,17.71,0,0,0,2.17,8.86,15.29,15.29,0,0,0,5.75,5.89A16.07,16.07,0,0,0,277.74,835.35Z"/><path d="M334.16,842.9a24.8,24.8,0,0,1-12.37-3,22.38,22.38,0,0,1-8.6-8.56,27.4,27.4,0,0,1,0-25.51,22.53,22.53,0,0,1,8.6-8.51,24.91,24.91,0,0,1,12.37-3.06,22,22,0,0,1,10.89,2.7,19.69,19.69,0,0,1,7.79,8.11q2.93,5.38,2.92,13.5T352.93,832a19.51,19.51,0,0,1-7.7,8.14A22.11,22.11,0,0,1,334.16,842.9Zm.72-7.55a16.12,16.12,0,0,0,8.15-2.08,14.91,14.91,0,0,0,5.76-5.89,18,18,0,0,0,2.11-8.86,17.72,17.72,0,0,0-2.11-8.87,15.07,15.07,0,0,0-5.76-5.8,17.09,17.09,0,0,0-16.34,0,15.49,15.49,0,0,0-5.76,5.8,17.43,17.43,0,0,0-2.16,8.87,17.7,17.7,0,0,0,2.16,8.86,15.32,15.32,0,0,0,5.76,5.89A16,16,0,0,0,334.88,835.35Zm16.29,7V829.49l.54-11.07-.9-11.07V775.58h8.64v66.78Z"/><path d="M380.15,785.48a5.75,5.75,0,0,1-4.18-1.62,5.3,5.3,0,0,1-1.67-4,5.44,5.44,0,0,1,1.67-4,5.75,5.75,0,0,1,4.18-1.62,5.87,5.87,0,0,1,4.19,1.58,5.18,5.18,0,0,1,1.66,3.92,5.61,5.61,0,0,1-5.85,5.75Zm-4.32,56.88v-47.7h8.64v47.7Z"/><path d="M426.41,794.21a22.71,22.71,0,0,1,10.31,2.25,16.16,16.16,0,0,1,7,6.85,23.86,23.86,0,0,1,2.52,11.6v27.45h-8.64V815.9q0-6.92-3.37-10.44T424.7,802a17.08,17.08,0,0,0-8,1.8,12.42,12.42,0,0,0-5.26,5.31,18.64,18.64,0,0,0-1.85,8.73v24.57h-8.64v-47.7h8.28v12.87l-1.35-3.42a16.67,16.67,0,0,1,7.2-7.29A23.73,23.73,0,0,1,426.41,794.21Z"/><path d="M482,840.38a25.71,25.71,0,0,1-12.37-2.92,22.28,22.28,0,0,1-8.64-8.15,24.4,24.4,0,0,1,0-24.16,22.1,22.1,0,0,1,8.64-8A26,26,0,0,1,482,794.21a25,25,0,0,1,11.16,2.48,18.89,18.89,0,0,1,8.06,7.6q3,5.13,3,13c0,5.17-1,9.45-3,12.87a19.5,19.5,0,0,1-8.06,7.7A24.24,24.24,0,0,1,482,840.38Zm1.08,20a44.14,44.14,0,0,1-12.73-1.84,26.34,26.34,0,0,1-10-5.27l4.14-6.65a24.66,24.66,0,0,0,8.19,4.54,31.16,31.16,0,0,0,10.17,1.67c5.64,0,9.78-1.33,12.42-4s4-6.66,4-12.07V826.7l.9-9.45-.45-9.54V794.66h8.19v41.22q0,12.6-6.3,18.54T483.11,860.36ZM483,832.82a17.61,17.61,0,0,0,8.46-2,14.86,14.86,0,0,0,5.81-5.5,16.6,16.6,0,0,0,0-16.2,14.51,14.51,0,0,0-5.81-5.44,18,18,0,0,0-8.46-1.94,18.2,18.2,0,0,0-8.5,1.94,14.42,14.42,0,0,0-5.85,5.44,16.53,16.53,0,0,0,0,16.2,14.77,14.77,0,0,0,5.85,5.5A17.85,17.85,0,0,0,483,832.82Z"/></g></g></svg>