<?xml version="1.0" encoding="UTF-8"?>
<svg id="Layer_2" data-name="Layer 2" xmlns="http://www.w3.org/2000/svg" viewBox="0 0 1311.81 1184.48">
  <defs>
    <style>
      .cls-1 {
        letter-spacing: -.02em;
      }

      .cls-2 {
        letter-spacing: 0em;
      }

      .cls-3 {
        stroke-width: 20px;
      }

      .cls-3, .cls-4 {
        fill: none;
        stroke: #000;
        stroke-linecap: round;
        stroke-linejoin: round;
      }

      .cls-5 {
        letter-spacing: -.02em;
      }

      .cls-6 {
        letter-spacing: 0em;
      }

      .cls-7 {
        letter-spacing: -.01em;
      }

      .cls-8 {
        font-family: MontserratRoman-Light, Montserrat;
        font-size: 48px;
        font-variation-settings: 'wght' 300;
        font-weight: 300;
      }

      .cls-4 {
        stroke-width: 3px;
      }
    </style>
  </defs>
  <g id="Layer_1-2" data-name="Layer 1">
    <path d="M1311.35,816.06c-.09-.52,.07-1.04-.07-1.55l-27.99-97.97c-1.72-6.01-7.21-10.15-13.46-10.15h-69.98v-69.98c0-54.01-43.91-97.97-97.89-97.97h-84.14c-53.97,0-97.89,43.95-97.89,97.97v69.98h-321.89c-6.25,0-11.74,4.14-13.46,10.15l-27.99,97.97c-.15,.52,.01,1.04-.07,1.56-.13,.77-.46,1.47-.46,2.28v307.9c0,7.73,6.26,14,14,14h55.98v44.25h27.99v-44.25h559.81v44.25h27.99v-44.25h55.98c7.73,0,14-6.26,14-14v-307.9c0-.81-.33-1.51-.46-2.28Zm-363.41-179.66c0-38.58,31.35-69.98,69.89-69.98h84.14c38.54,0,69.9,31.39,69.9,69.98v69.98h-223.92v-69.98h0Zm-339.33,97.97h650.67l19.98,69.98H588.62l19.98-69.98Zm675.22,377.87H584.06v-279.91h699.77v279.91h0Z"/>
    <path id="path3796" class="cls-3" d="M823.73,479.81l245.87,72.47,226.46-76.35"/>
    <path id="path3800" class="cls-3" d="M1071.02,697.69V414.49"/>
    <path id="path3802" class="cls-3" d="M1237.95,264.43c.04,83.45-73.36,151.13-163.96,151.16s-164.07-67.58-164.11-151.02v-.14c-.04-83.45,73.36-151.13,163.96-151.16,90.59-.04,164.07,67.58,164.11,151.02v.14Z"/>
    <path id="path5748" d="M1160.03,227.11c0,4.82-3.91,8.73-8.73,8.73s-8.73-3.91-8.73-8.73,3.91-8.73,8.73-8.73,8.73,3.91,8.73,8.73Z"/>
    <path id="path5748-2" data-name="path5748" d="M1001.31,227.11c0,4.82-3.91,8.73-8.73,8.73s-8.73-3.91-8.73-8.73,3.91-8.73,8.73-8.73,8.73,3.91,8.73,8.73Z"/>
    <g>
      <path d="M545.95,370.96v209.93c0,7.73,6.26,14,14,14h251.91c7.74,0,14-6.26,14-13.99v-209.93c0-7.73-6.26-14-14-14h-251.91c-7.73,0-14,6.27-14,14Zm251.92,14v181.93h-223.92v-181.93h223.92Z"/>
      <g id="Layer_5" data-name="Layer 5">
        <g>
          <path d="M726.97,538.47s-10.23-17.58-12.06-20.73c2.09-.64,4.31-1.2,5.24-2.79,1.54-2.66-1.2-7.02-.48-9.87,.74-2.93,5.12-5.47,5.12-8.45s-4.53-6.3-5.27-9.21c-.72-2.85,2.01-7.22,.46-9.87-1.54-2.66-6.69-2.44-8.81-4.48-2.18-2.1-2.17-7.23-4.8-8.64-2.64-1.41-6.93,1.44-9.86,.77-2.9-.67-5.49-5.03-8.51-5.03s-7.96,4.95-8.72,5.13c-2.93,.68-7.22-2.16-9.86-.75-2.63,1.41-2.61,6.54-4.79,8.64-2.11,2.04-7.26,1.83-8.8,4.49-1.54,2.66,1.2,7.02,.48,9.87-.72,2.86-5.25,5.75-5.25,9.06,0,2.98,4.39,5.51,5.13,8.44,.73,2.85-2.01,7.21-.46,9.87,.84,1.45,2.75,2.04,4.66,2.61,.22,.07,.64,.32,.36,.73-1.3,2.25-11.8,20.36-11.8,20.36-.83,1.44-.16,2.68,1.51,2.75l8.14,.34c1.66,.07,3.75,1.28,4.64,2.69l4.34,6.89c.89,1.41,2.3,1.38,3.13-.06,0,0,12.15-20.98,12.16-20.99,.24-.28,.49-.23,.61-.13,1.33,1.13,3.18,2.26,4.73,2.26s2.92-1.06,4.31-2.25c.11-.1,.39-.29,.59,.12,0,0,12.14,20.87,12.14,20.87,.84,1.44,2.25,1.46,3.13,.05l4.33-6.9c.89-1.41,2.97-2.62,4.63-2.69l8.14-.35c1.66-.07,2.34-1.31,1.5-2.75Zm-25.53-18.87c-9,5.24-19.8,4.68-28.06-.53-12.09-7.74-16.07-23.77-8.8-36.31,7.35-12.69,23.51-17.17,36.32-10.19,.07,.04,.13,.07,.2,.11,.09,.05,.19,.11,.28,.16,3.95,2.28,7.38,5.58,9.83,9.8,7.5,12.89,3.11,29.47-9.77,36.97Z"/>
          <path d="M699.39,476.62s-.08-.04-.11-.06c-6.84-3.96-15.56-4.25-22.86,0-10.84,6.31-14.53,20.26-8.22,31.1,1.92,3.31,4.56,5.95,7.61,7.85,.26,.16,.52,.33,.79,.48,10.85,6.29,24.8,2.57,31.09-8.28,6.29-10.85,2.57-24.8-8.28-31.09Zm2.72,17.74l-3.8,3.7c-1.18,1.15-1.91,3.41-1.63,5.03l.9,5.23c.28,1.62-.68,2.32-2.14,1.55l-4.7-2.47c-1.46-.76-3.84-.76-5.29,0l-4.7,2.47c-1.46,.76-2.42,.07-2.14-1.55l.9-5.23c.28-1.62-.46-3.88-1.63-5.03l-3.8-3.7c-1.18-1.15-.81-2.28,.82-2.52l5.25-.76c1.63-.24,3.55-1.64,4.28-3.11l2.35-4.76c.73-1.47,1.92-1.47,2.65,0l2.35,4.76c.73,1.47,2.65,2.87,4.28,3.11l5.25,.76c1.63,.24,1.99,1.37,.82,2.52Z"/>
        </g>
      </g>
      <text class="cls-8" transform="translate(587.99 441.88)"><tspan x="0" y="0">Finan</tspan><tspan class="cls-2" x="135.41" y="0">c</tspan><tspan x="161.61" y="0">e</tspan></text>
    </g>
    <g>
      <rect y="227.11" width="68.81" height="32"/>
      <path d="M393.95,63.04c13.2,50.85,32.61,118.98,49.24,150.95h68.8V0h-133.56s2.33,10.2,6.26,26.3H127.31c3.93-16.09,6.26-26.3,6.26-26.3H0V213.99H68.81c16.63-31.97,36.04-100.1,49.24-150.95"/>
      <path d="M242,396.08H117.62l-52.86-123.72H0v217.88s24.28,19.45,68.81,0c44.52-19.45,44.52,15.56,89.05,0l-25.49-59.66h247.28l-25.49,59.66c44.52,15.56,44.52-19.45,89.05,0,44.52,19.45,68.8,0,68.8,0v-217.88h-64.76l-52.86,123.72h-128.38"/>
      <rect x="443.2" y="227.11" width="68.8" height="32"/>
    </g>
    <path d="M179.66,232.92l-.89-2.14s-.01-.02-.01-.04c-1.64-3.94-6.17-5.81-10.12-4.16-3.94,1.64-5.81,6.17-4.16,10.12l7.7,18.58c1.63,3.95,6.16,5.82,10.11,4.19s5.82-6.16,4.19-10.11l-.89-2.14,17.63-7.3c.18-.07,.28-.22,.45-.3,5.33,9.34,13.06,17.07,22.4,22.4-.09,.17-.23,.28-.31,.46l-7.3,17.63-2.15-.89c-3.95-1.63-8.47,.24-10.11,4.19-1.63,3.95,.24,8.47,4.19,10.11l9.27,3.84s.01,0,.02,.01,.01,0,.02,0l9.27,3.84s.08,.03,.12,.05c3.96,1.6,8.47-.31,10.07-4.27,1.6-3.96-.31-8.47-4.27-10.07l-2.15-.89,7.3-17.63c.07-.18,.05-.36,.11-.54,10.37,2.84,21.31,2.85,31.68,0,.06,.18,.03,.36,.1,.53l7.3,17.63-2.14,.89c-3.94,1.64-5.81,6.15-4.18,10.09,1.63,3.95,6.15,5.83,10.1,4.21l9.27-3.84s.01,0,.02,0c0,0,0,0,.01,0l9.28-3.84c3.95-1.63,5.82-6.16,4.19-10.11s-6.16-5.82-10.11-4.19l-2.15,.89-7.3-17.63c-.07-.18-.22-.28-.3-.45,9.34-5.33,17.07-13.06,22.4-22.41,.17,.08,.28,.23,.46,.31l17.63,7.3-.89,2.15c-1.63,3.95,.24,8.47,4.19,10.11,3.95,1.63,8.47-.24,10.11-4.19l3.84-9.27v-.02s.01-.01,.01-.02l3.84-9.27s.01-.02,.02-.04c1.62-3.95-.26-8.47-4.21-10.1-3.95-1.62-8.47,.26-10.1,4.21l-.89,2.14-17.63-7.3c-.18-.07-.36-.05-.54-.11h0c2.84-10.37,2.84-21.31,0-31.68,.18-.06,.36-.03,.53-.11l17.63-7.3,.89,2.14s0,.02,.01,.02c1.64,3.95,6.17,5.81,10.11,4.17,3.94-1.64,5.81-6.17,4.17-10.11l-3.85-9.28h0s0-.01,0-.02l-3.85-9.29c-1.63-3.95-6.16-5.82-10.11-4.19-3.95,1.63-5.82,6.16-4.19,10.11l.89,2.15-17.63,7.3c-.17,.07-.28,.22-.45,.3-5.32-9.33-13.05-17.06-22.38-22.38,.09-.17,.22-.3,.29-.47l7.31-17.63,2.14,.89h.02c3.95,1.64,8.47-.25,10.1-4.2s-.26-8.47-4.21-10.1l-18.58-7.7s-.02,0-.02-.01c-3.95-1.63-8.47,.26-10.1,4.21-1.63,3.95,.26,8.47,4.21,10.1l2.14,.89-7.31,17.63c-.08,.18-.05,.36-.11,.54-10.37-2.84-21.31-2.84-31.68,0-.06-.18-.03-.36-.1-.54l-7.31-17.63,2.15-.89c3.94-1.64,5.81-6.15,4.18-10.09-1.63-3.95-6.15-5.83-10.1-4.21l-18.59,7.7s-.02,0-.02,.01c-3.94,1.64-5.81,6.17-4.17,10.11,1.64,3.95,6.17,5.81,10.11,4.17l2.14-.89,7.31,17.63c.07,.17,.2,.3,.28,.47-9.33,5.33-17.05,13.06-22.37,22.39-.17-.08-.28-.24-.46-.31l-17.63-7.3,.89-2.15c1.63-3.95-.24-8.47-4.19-10.11s-8.47,.24-10.11,4.19l-7.7,18.59s0,.02-.01,.02c-1.63,3.95,.26,8.47,4.21,10.1,3.95,1.63,8.47-.26,10.1-4.21l.89-2.14,17.63,7.3c.18,.07,.36,.05,.54,.11-2.84,10.37-2.84,21.31,0,31.68-.18,.06-.36,.03-.54,.1l-17.63,7.31Z"/>
    <text class="cls-8" transform="translate(147.67 364.95)"><tspan class="cls-7" x="0" y="0">C</tspan><tspan class="cls-1" x="33.65" y="0">O</tspan><tspan class="cls-7" x="72.86" y="0">V</tspan><tspan x="105.12" y="0">I</tspan><tspan class="cls-6" x="119.28" y="0">D</tspan><tspan class="cls-5" x="159.36" y="0">-</tspan><tspan x="176.88" y="0">19</tspan></text>
    <line class="cls-4" x1="1030.62" y1="253.94" x2="1111.42" y2="253.94"/>
  </g>
</svg>