<?xml version="1.0" encoding="UTF-8"?>
<svg id="Layer_2" data-name="Layer 2" xmlns="http://www.w3.org/2000/svg" viewBox="0 0 1451.18 1080.53">
  <defs>
    <style>
      .cls-1 {
        stroke: #606060;
        stroke-miterlimit: 10;
      }

      .cls-2 {
        letter-spacing: -.02em;
      }

      .cls-3 {
        letter-spacing: 0em;
      }

      .cls-4 {
        stroke-width: 20px;
      }

      .cls-4, .cls-5 {
        fill: none;
        stroke: #000;
        stroke-linecap: round;
        stroke-linejoin: round;
      }

      .cls-6 {
        letter-spacing: -.05em;
      }

      .cls-7 {
        letter-spacing: 0em;
      }

      .cls-8 {
        letter-spacing: 0em;
      }

      .cls-9 {
        letter-spacing: -.02em;
      }

      .cls-10 {
        letter-spacing: 0em;
      }

      .cls-11 {
        font-family: MontserratRoman-Medium, Montserrat;
        font-size: 72px;
        font-variation-settings: 'wght' 500;
        font-weight: 500;
      }

      .cls-12 {
        letter-spacing: 0em;
      }

      .cls-5 {
        stroke-width: 3px;
      }
    </style>
  </defs>
  <g id="Layer_1-2" data-name="Layer 1">
    <path d="M757.53,602.42H435.64c-6.25,0-11.74,4.14-13.46,10.15l-27.99,97.97c-.15,.52,.01,1.04-.07,1.56-.13,.77-.46,1.47-.46,2.28v307.9c0,7.73,6.26,14,14,14h55.98v44.25h27.99v-44.25h559.81v44.25h27.99v-44.25h55.98c7.73,0,14-6.26,14-14v-307.9c0-.81-.33-1.51-.46-2.28-.09-.52,.07-1.04-.07-1.55l-27.99-97.97c-1.72-6.01-7.21-10.15-13.46-10.15h-69.98m-27.99,0h-223.92m-339.33,27.99h650.67l19.98,69.98H426.21l19.98-69.98Zm675.22,377.87H421.65v-279.91h699.77v279.91h0Z"/>
    <g>
      <g>
        <path id="path5748" d="M859.34,123.85c0,4.82-3.91,8.73-8.73,8.73s-8.73-3.91-8.73-8.73,3.91-8.73,8.73-8.73,8.73,3.91,8.73,8.73Z"/>
        <path id="path3802" class="cls-4" d="M609.19,161.16c-.04-83.45,73.36-151.13,163.96-151.16,90.59-.04,164.07,67.58,164.11,151.02v.14c.04,83.45-80.36,151.13-170.96,151.16"/>
        <path id="path3802-2" data-name="path3802" class="cls-4" d="M766.3,312.33c-90.59,.04-157.07-67.58-157.11-151.02"/>
        <path id="path5748-2" data-name="path5748" d="M705.58,123.85c0,4.82-3.91,8.73-8.73,8.73s-8.73-3.91-8.73-8.73,3.91-8.73,8.73-8.73,8.73,3.91,8.73,8.73Z"/>
        <path class="cls-5" d="M729.93,150.68c6.7,3.61,20.87,10.09,39.92,10.19,19.58,.11,34.15-6.57,40.87-10.19"/>
        <path id="path5748-3" data-name="path5748" d="M705.58,123.85c0,4.82-3.91,8.73-8.73,8.73s-8.73-3.91-8.73-8.73,3.91-8.73,8.73-8.73,8.73,3.91,8.73,8.73Z"/>
        <path class="cls-1" d="M728.94,148.53c0,22.86,18.53,41.38,41.38,41.38s41.38-18.53,41.38-41.38"/>
      </g>
      <path id="path3796" class="cls-4" d="M516.04,376.54l252.87,72.47,226.46-76.35"/>
      <path id="path3800" class="cls-4" d="M770.33,602.42l2.97-290.09"/>
    </g>
    <path d="M911.48,602.42v-69.98c0-54.01-43.91-97.97-97.89-97.97h-84.14c-53.97,0-97.89,43.95-97.89,97.97v69.98m27.99-69.98c0-38.58,31.35-69.98,69.89-69.98h84.14c38.54,0,69.9,31.39,69.9,69.98v69.98h-223.92v-69.98h0Z"/>
    <text class="cls-11" transform="translate(202.39 232.36)"><tspan x="0" y="0">Hi!</tspan><tspan x="-202.39" y="86.4" xml:space="preserve"> I’m Ha</tspan><tspan class="cls-8" x="52.63" y="86.4">rr</tspan><tspan x="110.66" y="86.4">ison! </tspan></text>
    <text class="cls-11" transform="translate(1084.13 380.66)"><tspan class="cls-6" x="0" y="0">W</tspan><tspan x="77.11" y="0">el</tspan><tspan class="cls-7" x="141.26" y="0">c</tspan><tspan class="cls-3" x="181.8" y="0">ome </tspan><tspan class="cls-2" x="69.23" y="86.4">t</tspan><tspan x="97.74" y="86.4">o </tspan><tspan class="cls-10" x="162.83" y="86.4">m</tspan><tspan class="cls-12" x="238.21" y="86.4">y </tspan><tspan class="cls-9" x="31.11" y="172.8">w</tspan><tspan x="94.75" y="172.8">ebsi</tspan><tspan class="cls-2" x="244.08" y="172.8">t</tspan><tspan x="272.59" y="172.8">e!</tspan></text>
  </g>
</svg>